<?xml version="1.0" standalone="no"?>
<!DOCTYPE svg PUBLIC "-//W3C//DTD SVG 1.1//EN" "http://www.w3.org/Graphics/SVG/1.1/DTD/svg11.dtd" >
<!--
2013-9-30: Created.
-->
<svg>
<metadata>
Created by iconfont
</metadata>
<defs>

<font id="iconfont" horiz-adv-x="1024" >
  <font-face
    font-family="iconfont"
    font-weight="500"
    font-stretch="normal"
    units-per-em="1024"
    ascent="896"
    descent="-128"
  />
    <missing-glyph />
    
    <glyph glyph-name="search" unicode="&#58972;" d="M982.9376-38.673066670000026l-162.78186667 174.1824c65.97973333 79.4624 102.26346667 178.51733333 102.26346667 282.79466667 0 244.6336-199.0656 443.6992-443.76746667 443.6992-244.6336 0-443.6992-199.03146667-443.6992-443.6992s199.0656-443.6992 443.73333334-443.6992c64.1024 0.03413333 125.91786667 13.4144 183.7056 39.7312 17.16906667 7.81653333 24.74666667 28.0576 16.93013333 45.19253333-7.81653333 17.2032-28.16 24.81493333-45.19253333 16.93013334-48.91306667-22.25493333-101.20533333-33.55306667-155.47733334-33.5872-207.01866667 0-375.43253333 168.41386667-375.43253333 375.43253333 0 206.98453333 168.41386667 375.43253333 375.43253333 375.43253333 207.0528 0 375.5008-168.41386667 375.5008-375.43253333 0-97.45066667-37.1712-189.78133333-104.61866666-259.9936-13.07306667-13.58506667-12.62933333-35.19146667 0.9216-48.26453333 1.024-0.98986667 2.3552-1.36533333 3.51573333-2.21866667 0.9216-1.36533333 1.39946667-2.93546667 2.56-4.16426667l176.5376-188.89386666c6.69013333-7.20213333 15.80373333-10.82026667 24.91733333-10.82026667 8.36266667 0 16.72533333 3.03786667 23.31306667 9.216C995.05493333-74.03520000000003 995.80586667-52.428800000000024 982.9376-38.673066670000026z"  horiz-adv-x="1024" />

    
    <glyph glyph-name="camera" unicode="&#58982;" d="M512 145.06666667000002c-112.9472 0-204.8 91.8528-204.8 204.8s91.8528 204.8 204.8 204.8 204.8-91.8528 204.8-204.8S624.9472 145.06666667000002 512 145.06666667000002zM512 486.4c-75.29813333 0-136.53333333-61.2352-136.53333333-136.53333333 0-75.29813333 61.2352-136.53333333 136.53333333-136.53333334 75.29813333 0 136.53333333 61.2352 136.53333333 136.53333334C648.53333333 425.1648 587.29813333 486.4 512 486.4zM887.46666667-25.600000000000023L136.53333333-25.600000000000023c-56.45653333 0-102.4 45.94346667-102.4 102.4L34.13333333 622.93333333c0 56.45653333 45.94346667 102.4 102.4 102.4l102.4 0c18.8416 0 34.13333333-15.29173333 34.13333334-34.13333333S257.77493333 657.06666667 238.93333333 657.06666667L136.53333333 657.06666667C117.72586667 657.06666667 102.4 641.7408 102.4 622.93333333l0-546.13333333c0-18.8416 15.32586667-34.13333333 34.13333333-34.13333333l750.93333334 0c18.8416 0 34.13333333 15.29173333 34.13333333 34.13333333L921.6 622.93333333c0 18.80746667-15.29173333 34.13333333-34.13333333 34.13333334L512 657.06666667c-18.8416 0-34.13333333 15.29173333-34.13333333 34.13333333s15.29173333 34.13333333 34.13333333 34.13333333l375.46666667 0c56.45653333 0 102.4-45.94346667 102.4-102.4l0-546.13333333C989.86666667 20.343466669999998 943.9232-25.600000000000023 887.46666667-25.600000000000023zM836.26666667 571.73333333m-51.2 0a1.6 1.6 0 1 1 102.4 0 1.6 1.6 0 1 1-102.4 0ZM477.86666667 793.6c0-18.8416-15.29173333-34.13333333-34.13333334-34.13333333l-136.53333333 0C288.3584 759.46666667 273.06666667 774.7583999999999 273.06666667 793.6l0 0c0 18.8416 15.29173333 34.13333333 34.13333333 34.13333333l136.53333333 0C462.57493333 827.73333333 477.86666667 812.4416 477.86666667 793.6L477.86666667 793.6z"  horiz-adv-x="1024" />

    
    <glyph glyph-name="scan" unicode="&#59017;" d="M985.31555555 347.59111111000004L38.68444445 347.59111111000004c-20.09770667 0-36.40888889 16.31118222-36.4088889 36.40888889s16.31118222 36.40888889 36.4088889 36.40888889l946.6311111 0c20.13411555 0 36.40888889-16.31118222 36.4088889-36.40888889S1005.44967111 347.59111111000004 985.31555555 347.59111111000004zM876.08888889-89.31555555l-218.45333334 0c-20.13411555 0-36.40888889 16.27477333-36.40888888 36.40888888s16.27477333 36.40888889 36.40888888 36.40888889l218.45333334 0c20.09770667 0 36.40888889 16.31118222 36.40888889 36.40888889l0 182.04444444c0 20.13411555 16.27477333 36.40888889 36.40888889 36.4088889s36.40888889-16.27477333 36.40888888-36.4088889l0-182.04444444C985.31555555-40.30919111000003 936.30919111-89.31555555 876.08888889-89.31555555zM329.95555555-89.31555555L147.91111111-89.31555555c-60.22030222 0-109.22666667 49.00636445-109.22666666 109.22666666l0 182.04444444c0 20.13411555 16.31118222 36.40888889 36.40888888 36.4088889s36.40888889-16.27477333 36.40888889-36.4088889l0-182.04444444c0-20.09770667 16.34759111-36.40888889 36.40888889-36.40888889l182.04444444 0c20.09770667 0 36.40888889-16.27477333 36.4088889-36.40888889S350.05326222-89.31555555 329.95555555-89.31555555zM75.09333333 529.6355555499999c-20.09770667 0-36.40888889 16.31118222-36.40888888 36.4088889L38.68444445 748.08888889c0 60.22030222 49.00636445 109.22666667 109.22666666 109.22666666l182.04444444 0c20.09770667 0 36.40888889-16.31118222 36.4088889-36.40888888s-16.31118222-36.40888889-36.4088889-36.40888889L147.91111111 784.49777778C127.84981333 784.49777778 111.50222222 768.15018667 111.50222222 748.08888889l0-182.04444444C111.50222222 545.9467377799999 95.19104 529.6355555499999 75.09333333 529.6355555499999zM948.90666667 529.6355555499999c-20.13411555 0-36.40888889 16.31118222-36.40888889 36.4088889L912.49777778 748.08888889c0 20.06129778-16.31118222 36.40888889-36.40888889 36.40888889l-218.45333334 0c-20.13411555 0-36.40888889 16.31118222-36.40888888 36.40888889s16.27477333 36.40888889 36.40888888 36.40888888l218.45333334 0c60.22030222 0 109.22666667-49.00636445 109.22666666-109.22666666l0-182.04444444C985.31555555 545.9467377799999 969.04078222 529.6355555499999 948.90666667 529.6355555499999z"  horiz-adv-x="1024" />

    
    <glyph glyph-name="icon" unicode="&#58882;" d="M511.979-95.05600000000004c-300.633 0-426.734 107.535-426.734 328.527 0 183.079 142.992 374.138 316.335 434.413h220.799c173.35-60.275 316.335-251.333 316.335-434.413-0.001-220.992-126.102-328.527-426.737-328.527zM630.242 268.086v0.073c19.951 0.105 36.089 16.314 36.089 36.281 0 19.987-16.137 36.177-36.089 36.303v0.086h-73.195c0.143 0.816-0.097 1.542-0.025 2.359l85.783 87.691c13.993 15.764 6.873 28.799-7.269 43.092-14.231 14.365-37.489 17.378-48.989 4.859l-73.762-78.629-79.675 79.676c-10.082 10.073-29.696 6.791-43.81-7.324-14.126-14.134-17.397-33.764-7.324-43.837l81.486-81.467c-1.525-1.95-2.512-4.115-3.104-6.42h-66.225v-0.068c-0.062 0-0.126 0-0.186 0-20.057 0-36.319-16.245-36.319-36.319 0-20.037 16.262-36.316 36.319-36.316 0.061 0 0.124 0.036 0.186 0.036v-0.073h72.591v-36.175h-72.591v-0.106c-0.062 0-0.126 0-0.186 0-20.057 0-36.319-16.245-36.319-36.317 0-20.039 16.262-36.319 36.319-36.319 0.061 0 0.124 0.036 0.186 0.036v-0.036h72.591v-36.566h0.753c-0.569-2.836-0.895-5.798-0.895-8.83 0-25.075 20.322-45.398 45.396-45.398 25.076 0 45.398 20.323 45.398 45.398 0 3.031-0.33 5.994-0.896 8.83h0.425v36.566l73.338 0.036c19.951 0.125 36.089 16.315 36.089 36.284 0 19.984-16.137 36.175-36.089 36.299v0.125h-73.338v36.174h73.337zM684.487 812.89l-7.632-9.54c-0.169-0.177-0.286-0.39-0.454-0.567l-64.548-80.686h-217.906l-64.426 80.545c-0.479 0.462-0.789 1.028-1.232 1.525l-6.978 8.724 1.231 2.466c-0.593 2.235-1.383 4.416-1.383 6.828 0 11.562 7.271 21.331 17.45 25.305l0.861 1.721c0 0 89.262 17.857 163.43 18.159 77.62 0.319 163.431-18.159 163.431-18.159l0.88-1.738c10.115-4.009 17.324-13.762 17.324-25.287 0-2.377-0.781-4.487-1.347-6.667l1.3-2.627z"  horiz-adv-x="1024" />

    
    <glyph glyph-name="zhuanzhang" unicode="&#58883;" d="M983.4816 385.392c-33.61066667-0.3232-198.39466667 94.8448-203.59893333 99.80586667-12.51626667 11.93386667-7.78666667 26.78933333 4.98453333 28.82133333s84.4832 10.55786667 84.4832 10.55786667c-44.07253333 117.79946667-142.4192 211.8784-271.49546667 242.3712-206.01386667 48.68586667-419.06133333-89.41546667-466.1472-300.1856-0.40533333-1.79733333-3.25013333-23.28533333-20.31466666-22.60373334-11.552 0.4608-49.39626667 15.50826667-63.0784 21.9264-15.62026667 7.32586667-19.84106667 5.4336-15.104 29.0144 53.584 267.94773333 327.9968 448.53013333 591.38026666 386.74346667 218.58026667-51.2672 370.42133333-240.93653333 387.104-457.04213333 2.7936-28.96106667-11.94986667-39.25013333-28.2144-39.40693334zM639.46453333 326.66240000000005c21.63626667 0 39.1776-17.52213333 39.1776-39.17546667 0-21.616-17.54133333-39.1776-39.1776-39.1776h-78.35306666v-48.9696c0-27.0496-21.92106667-48.97173333-48.97173334-48.97173333-27.04853333 0-48.97066667 21.92106667-48.97066666 48.97173333v48.9696h-78.35306667c-21.63626667 0-39.17546667 17.56266667-39.17546667 39.1776 0 21.65546667 17.54026667 39.17546667 39.17546667 39.17546667h78.35306667v39.17866667h-78.35306667c-21.63626667 0-39.17546667 17.5584-39.17546667 39.1744 0 21.65333333 17.54026667 39.1776 39.17546667 39.1776h78.35306667v2.67946666l-86.94186667 86.92373334c-15.408 15.41866667-15.408 40.4 0 55.80053333s40.38186667 15.39946667 55.79093333 0l79.46346667-79.4432 79.77173333 79.7696c15.40693333 15.38026667 40.38293333 15.38026667 55.78986667 0 15.40906667-15.4176 15.40906667-40.40213333 0-55.80053333l-85.92853333-85.9296v-3.99893334h78.35306666c21.63626667 0 39.1776-17.52426667 39.1776-39.1776 0-21.61813333-17.54133333-39.1744-39.1776-39.1744h-78.35306666v-39.17866666h78.35306666zM246.4288 271.37919999999997c17.18613333-10.9888 13.04426667-33.06026667-5.84213333-35.02506667s-78.02986667-7.17333333-78.02986667-7.17333333c46.8864-109.8816 141.91253333-196.5184 264.78186667-225.53813333 206.0128-48.66453333 416.6944 82.75413333 463.79306666 293.52426666 0.9664 4.32426667 0.93546667 3.64586667 2.6208 12.93013334s4.41493333 23.408 22.55146667 17.12213333 62.37333333-19.29066667 76.1536-22.97493333 12.22933333-9.11786667 10.5024-21.9232c-0.52586667-3.8944-1.32053333-7.46026667-2.15146667-11.2096-61.664-274.04906667-330.08106667-445.00906667-599.51893333-381.7856-218.32213333 51.21066667-370.0768 240.4576-387.056 456.23893333-2.30293333 37.07946667 23.89333333 44.64746667 50.672 30.48213333 21.06666667-11.14346667 164.33493333-93.6768 181.52106667-104.6656z"  horiz-adv-x="1024" />

    
    <glyph glyph-name="shoujichongzhi" unicode="&#58887;" d="M808.7770624 893.78775267L215.02384355 893.78775267c-58.55356245 0-106.02769294-47.47529557-106.02769294-106.02769294l0-805.80976981c0-58.56171235 47.47529557-106.02652899 106.02769294-106.02652899l593.75438394 0c58.54191957 0 106.02769294 47.46598059 106.02769294 106.02652899L914.80592043 787.76005973C914.80592043 846.31245824 867.32014592 893.78775267 808.7770624 893.78775267zM448.28453547 830.17067179l127.23066994 0c11.71280782 0 21.20646997-9.4948261 21.20646997-21.20530603s-9.49366215-21.20530603-21.20646997-21.20530603L448.28453547 787.76005973c-11.71280782 0-21.20530603 9.4948261-21.20530603 21.20530603S436.57172765 830.17067179 448.28453547 830.17067179zM511.90045241-60.459157050000044c-35.13376768 0-63.61591694 28.48564224-63.61591694 63.61591694 0 35.13260373 28.4821504 63.61940992 63.61591694 63.61940992 35.14424661 0 63.61591694-28.48680733 63.61591694-63.61940992C575.51637049-31.973514809999983 547.04353507-60.459157050000044 511.90045241-60.459157050000044zM787.57059243 151.59622882999997L236.22914845 151.59622882999997 236.22914845 724.14297771 787.57059243 724.14297771 787.57059243 151.59622882999997z"  horiz-adv-x="1024" />

    
    <glyph glyph-name="jipiao" unicode="&#58892;" d="M969.30591175 651.29730563c-0.53153943-0.5278136-1.11151362-0.96248354-1.65050474-1.47912081l0.07699873-0.07699874L768.54791251 472.79938674l57.74903433-222.84917752 19.17267938-74.00197205 65.37563341-252.2390892-0.13536825-0.07699873c3.4823294-11.2728595 0.88051743-23.99876013-8.08238133-32.91322413-12.92584854-12.85878458-33.86701445-12.85878458-46.78416976 0-0.60853817 0.59984494-1.03327334 1.29655937-1.58468354 1.9150323-0.62840893 0.54147542-1.3238806 0.98608014-1.922484 1.58592509-0.57997418 0.55886188-0.99601613 1.23694709-1.5287971 1.83679203l-0.23223774-0.09686948L551.62515183 280.09520483999995 384.44355979 131.57213920000004l-0.45826655 0.05961228-39.05945965-176.19168401-0.07203134-0.0211123c-0.38747796-7.86877159-3.49102262-15.6220457-9.53293695-21.65650834-12.92709008-12.84015658-33.86701445-12.84015658-46.78913714 0-3.88098367 3.86608029-6.45423043 8.48724575-8.00165676 13.36300278l-0.06706397-0.0211123-59.84662807 146.2391846L72.14920014 153.21001952999995c-0.49179792 0.17510977-0.97614538 0.36636445-1.45925007 0.57997419l-0.52657204 0.21485128 0.00869322 0.05712797c-3.51461922 1.58468354-6.84419148 3.73195359-9.73536916 6.59456729-12.92088115 12.85878458-12.92088115 33.70308221 0 46.54199603 6.04812447 6.0145931 13.8548007 9.10696023 21.76828121 9.49567973l0.01366061 0.07699873 177.45967817 38.92409139 149.4780975 166.48487761L25.34640116 716.83190389l0.14033686 0.31420386c-0.82835683 0.67684367-1.70763271 1.24688187-2.48134588 2.01686919-12.92088115 12.85381719-12.92088115 33.68817884 0 46.54199603 7.77314365 7.7296775 18.43746619 10.71772346 28.52057179 9.1504276l0.00496739 0.00496738 0.04843474-0.00993478c1.61448907-0.25583434 3.19047938-0.68677844 4.76150109-1.17981912l243.93688921-60.2750891 74.95576357-18.52315816 228.12483158-56.37050883 177.22495613 197.40358762 0.07824027-0.08320888c0.52284621 0.53774958 0.96496784 1.10778778 1.48781406 1.63932723 53.58986247 54.1263693 154.18868076 70.02039425 205.86599401 18.61133441C1039.70136368 804.66259695 1023.1131086 705.4236749300001 969.30591175 651.29730563zM876.34735316 828.28133081c-40.24548891 0-73.85418471-28.2846082-82.14769147-66.04750848l114.77900037-95.68580404c30.26918756 12.74204555 51.51958994 42.67964158 51.51958994 77.58241246C960.49949476 790.60536403 922.82352677 828.28133081 876.34735316 828.28133081z"  horiz-adv-x="1024" />

    
    <glyph glyph-name="didi" unicode="&#58908;" d="M1022.16213333 405.0752c0 29.77386667-37.21173333 53.9232-83.11573333 53.9232-14.91733333 0-28.88106667-2.57493333-40.97706667-7.03466667l-62.92373333 179.616c-14.46826667 23.8496-16.28906667 49.41973333-39.2416 49.41973334h-98.98773333l-14.13546667 72.58453333c-5.83573333 20.5472-33.6224 28.9984-56.57173333 28.9984h-226.25706667c-22.94933333 0-50.92053333-8.4512-56.56213333-28.9984l-14.14506667-72.58453333h-98.98986667c-22.94933333 0-29.29813333-28.52586667-39.25333333-49.41973334l-62.89813333-179.616c-12.10666667 4.4608-26.0928 7.03466667-40.99946667 7.03466667-45.90293333 0-83.1072-24.1504-83.1072-53.9232 0-29.77066667 37.20426667-53.92106667 83.1072-53.92106667 0.37546667 0 0.73813333 0.04053333 1.1136 0.04053334 0.2144-1.32906667 0.3008-2.57493333 0.62186667-3.9456-3.86026667-67.43573333 33.39733333-286.90773333 39.8304-319.68106667 8.3648-36.84906667 22.07146667-43.1552 45.02186666-43.1552h84.84266667c22.94933333 0 36.37866667 19.3472 36.37866667 43.1552v46.80213333c10.79893333-1.1136 22.05973333-2.14613333 34.32746666-2.8736 133.888-8.06613333 252.86506667-9.05066667 367.6736 0 12.07786667 0.944 23.39093333 2.10133333 34.34026667 3.34613334v-47.27466667c0-23.808 13.41653333-43.1552 36.36693333-43.1552h84.85333334c22.9504 0 39.23946667 18.10346667 45.0112 43.1552 13.46026667 39.12426667 67.8912 269.7856 53.72053333 324.22933333 40.12053333 3.81653333 70.95253333 26.16746667 70.95253333 53.28zM230.25386667 173.08053332999998c-46.8672 0-84.8416 38.99413333-84.8416 87.08373334s37.9744 87.0848 84.8416 87.0848c46.85546667 0 84.8544-38.9952 84.8544-87.0848s-37.99786667-87.08373333-84.8544-87.08373334zM654.48853333 419.78986667c-58.9184-8.02346667-209.9008-5.06133333-254.53653333 0-44.64746667 5.01866667-146.61653333 17.632-146.61653333 17.632-22.95146667 0-41.5584 19.34613333-41.5584 43.1552l20.7968 86.27093333c8.64106667 30.32853333 17.15733333 41.61066667 40.11093333 41.61066667h480.79466667c22.96213333 0 31.45706667-11.28213333 40.12266666-41.61066667l20.7744-86.27093333c0-23.80906667-18.60693333-43.1552-41.5584-43.1552-0.00213333-0.00106667-59.39626667-9.56906667-118.3296-17.632zM810.0512 173.08053332999998c-46.86506667 0-84.85333333 38.99413333-84.85333333 87.08373334s37.9872 87.0848 84.85333333 87.0848c46.84586667 0 84.8416-38.9952 84.8416-87.0848s-37.9968-87.08373333-84.8416-87.08373334z"  horiz-adv-x="1024" />

    
    <glyph glyph-name="sousuo" unicode="&#58927;" d="M757.68546645 176.14655488000005c68.31966891 76.24036807 109.87685319 176.99613355 109.8768532 287.45164117 0 237.88643669-192.84451783 430.75773326-430.75773327 430.75773326-237.91205149 0-430.76122624-192.87129657-430.76122624-430.75773326 0-237.9423232 192.84801081-430.81245582 430.76122624-430.81245582 108.17814642 0 207.0489179 39.88642019 282.74323229 105.77154844l261.95125134-261.9745371 37.87335338 37.87218944L757.68546645 176.14655488000005zM436.80575033 86.06388224c-208.14917632 0-377.48308423 169.38397241-377.48308423 377.53431381 0 208.09561885 169.33274397 377.53082083 377.48308423 377.53082084 208.14684843 0 377.47959239-169.43520199 377.47959239-377.53082084C814.28534272 255.44901859000004 644.95259875 86.06388224 436.80575033 86.06388224z"  horiz-adv-x="1024" />

    
    <glyph glyph-name="tianjia" unicode="&#58933;" d="M539.2428672 410.87011093L539.2428672 861.36715733 486.243792 861.36715733 486.243792 410.87011093 35.7467456 410.87011093 35.7467456 357.86994453 486.243792 357.86994453 486.243792-92.62710187000005 539.2428672-92.62710187000005 539.2428672 357.86994453 989.7410048 357.86994453 989.7410048 410.87011093Z"  horiz-adv-x="1024" />

    
    <glyph glyph-name="saoyisao" unicode="&#58936;" d="M983.98293333 351.14239999999995h-943.23626666c-20.28906667 0-36.75093333 16.48213333-36.75093334 36.7776 0 20.2944 16.464 36.76373333 36.75093334 36.76373333h943.23626666c20.2816 0 36.75093333-16.46933333 36.75093334-36.76373333 0-20.29546667-16.46933333-36.7776-36.75093334-36.7776M934.98773333 566.49386667c-20.2816 0-36.75093333 16.45546667-36.75093333 36.7776v159.32906666h-159.25013333c-20.28053333 0-36.74986667 16.47466667-36.74986667 36.7712 0 20.29546667 16.4704 36.7712 36.74986667 36.7712h196c20.2816 0 36.75093333-16.47466667 36.75093333-36.7712v-196.0992c0-20.3232-16.46933333-36.7776-36.75093333-36.7776M285.744 762.6016h-159.25013333v-159.32906667c0-20.32213333-16.464-36.7776-36.75093334-36.7776-20.28053333 0-36.74986667 16.45546667-36.74986666 36.7776v196.09813334c0 20.29546667 16.46933333 36.7712 36.74986666 36.7712h196c20.2816 0 36.75093333-16.47466667 36.75093334-36.7712 0-20.2944-16.46933333-36.76906667-36.75093334-36.76906667M89.74293333 204.07253333000006c20.28906667 0 36.75093333-16.4832 36.75093334-36.7776v-159.32906666h159.24906666c20.2816 0 36.75093333-16.4704 36.75093334-36.7776 0-20.2944-16.46933333-36.76373333-36.75093334-36.76373334h-195.99893333c-20.28053333 0-36.74986667 16.4704-36.74986667 36.76373334v196.10773333c0 20.2944 16.46933333 36.7776 36.74986667 36.7776M738.98666667 7.966933329999961h159.24906666v159.32906667c0 20.2944 16.4704 36.7776 36.75093334 36.7776s36.75093333-16.4832 36.75093333-36.7776v-196.10773333c0-20.2944-16.4704-36.76373333-36.75093333-36.76373334h-195.99893334c-20.28053333 0-36.74986667 16.4704-36.74986666 36.76373334-0.00106667 20.30933333 16.46933333 36.7776 36.74986666 36.7776z"  horiz-adv-x="1024" />

    
    <glyph glyph-name="huankuan" unicode="&#58969;" d="M900.12532395 829.42086485L123.93056256 829.42086485c-66.35201081 0-120.32407211-53.97089735-120.32407211-120.3240721l0-649.36810155c0-66.35317475 53.97089735-120.30195029 120.32407211-120.30195029l776.19476139 0c66.35201081 0 120.32407211 53.94877554 120.3240721 120.30195029L1020.44939605 709.09795783C1020.44939605 775.44996864 966.4784987 829.42086485 900.12532395 829.42086485zM123.93056256 770.14660437l776.19476139 0c33.66093483 0 61.05097557-27.3888768 61.05097557-61.04864654l0-101.60453632L62.88191602 607.49342151l0 101.60453632C62.88191602 742.75656363 90.27079282 770.14660437 123.93056256 770.14660437zM900.12532395-1.297833530000048L123.93056256-1.297833530000048c-33.65976974 0-61.04981163 27.36559104-61.04981163 61.02652473L62.88075093 415.19030045l898.2943835 0 0-355.46160811C961.17629952 26.06775750999998 933.78625763-1.297833530000048 900.12532395-1.297833530000048zM314.85050083 256.45729792l-75.52898389 0c-27.68926493 0-50.35226795-22.66416697-50.35226795-50.35226795l0-25.17671594c0-27.68926493 22.66300302-50.32898219 50.35226795-50.32898219l75.52898389 0c27.66597917 0 50.32898219 22.63855331 50.32898219 50.32898219l0 25.17671594C365.17948302 233.79313094999998 342.51648 256.45729792 314.85050083 256.45729792z"  horiz-adv-x="1024" />

    
    <glyph glyph-name="fuwuchuang" unicode="&#58981;" d="M647.10883555 217.05386667000005l-141.53841777 74.56654222-139.93415111-77.73184 25.16536888 161.62133333-115.0816711 112.97905778 157.11345777 25.31896889 68.81166223 147.61870222 71.92462222-146.01443556 157.60270222-21.76341333-112.66616889-115.53792 28.60259555-161.05699555zM879.35317333 860.77098667h-740.11648c-29.92583111 0-51.08167111-32.51541333-51.08167111-63.33895112v-828.74481777c0-80.55011555 75.74641778-64.59619555 103.14410667-52.15345778l270.46115556 122.94940445c27.39996445 12.44387555 71.88138667 12.61681778 99.36668444 0.43349333l288.21731556-127.67459556c27.46254222-12.22656 87.75452445-6.59114667 87.75452444 64.63943111v820.55054222c0 30.82467555-27.82321778 63.33895111-57.74563556 63.33895112z"  horiz-adv-x="1024" />

    
    <glyph glyph-name="dingdan" unicode="&#58895;" d="M309.2058822 333.75475759000005M810.61653163 879.83211347L213.387193 879.83211347c-46.65004305 0-91.2857-37.82002946-91.2857-84.48373313l0-809.40922743c0-46.65873628 44.63565695-91.30557076 91.2857-91.30557077l355.80856821 0 89.73330629 0 236.78346126 256.90123773 6.18473549 14.92781556 0 94.05020146L901.89726425 795.34838034C901.89726425 842.01208401 857.26657468 879.83211347 810.61653163 879.83211347zM276.7347797 650.9174238l470.53416644 0 0-55.88119521L276.7347797 595.0362285900001 276.7347797 650.9174238zM493.86618273 214.86377733999996L276.7347797 214.86377733999996l0 55.87622663 217.13140303 0L493.86618273 214.86377733999996zM493.86618273 341.5875135L276.7347797 341.5875135l0 55.87622662 217.13140303 0L493.86618273 341.5875135zM276.7347797 468.31249242l0 55.87622662 470.53416644 0 0-55.87622662L276.7347797 468.31249242zM641.68756534-21.211791960000028L641.68756534 133.78537487999995c0 23.32936814 18.90566751 42.24000304 42.22510089 42.24000304L826.55774978 176.02537914000004 641.68756534-21.211791960000028z"  horiz-adv-x="1024" />

    
    <glyph glyph-name="xingxing" unicode="&#59093;" d="M344.86599147 626.4073215999999c-8.374192-15.6131968-20.97368427-25.7523872-34.2433728-27.13535147l-197.13625494-28.5958144c-75.9844416-12.64315307-105.97195307-107.37674773-51.7820224-163.75518826l141.7532864-142.717104c11.409728-11.87471787 16.822608-27.880864 14.0304832-42.38397867l-34.32087146-202.3242816c-12.16615573-79.05599787 66.83635733-138.93496427 133.8069728-100.92800853l175.30463146 94.7292288c14.2138592 8.19736533 28.65366507 8.19736533 42.29993067 0.32418346l176.27936427-95.28809066c66.56565867-37.7722784 145.56489707 22.106688 133.466416 100.78938453l-34.29140054 202.1758336c-1.456096 15.807488 3.66098027 32.21749973 14.20512747 43.1818848l141.2184384 142.1713408c54.45735467 56.65023147 24.4698432 151.38273387-51.06052373 163.9538464l-196.70728534 28.5554272c-15.65030827 3.30077653-29.2158016 13.43996693-34.7902272 26.49244267l-87.0514304 185.9306432c-33.30902613 72.44134613-130.95808853 72.44134613-164.3402464-0.15390507L344.86599147 626.4073215999999 344.86599147 626.4073215999999zM344.86599147 626.4073215999999"  horiz-adv-x="1024" />

    
    <glyph glyph-name="wodeshoucang" unicode="&#58921;" d="M367.54979408-46.14898102999996l-1.49774882-0.19746482c-1.68527887-0.22230297-169.31395994-21.50996256-239.1170186 40.37092237-19.66323575 17.43027253-29.06825614 39.75244822-28.75529384 68.23948864 1.72750348 157.22516146 138.16425494 271.46765502 264.20121266 311.07976762l37.986446 11.93852564-30.58960156 25.49030001c-0.92771062 0.77371316-92.76978821 78.80942478-92.76978821 208.70004373 0 71.35545238 44.57728743 120.12171719 81.97258171 148.46717922 44.23575993 33.53045553 101.50665815 55.19565831 145.90635152 55.1956583 35.92238361 0 91.76507885-14.03239477 140.76109832-53.4172358 35.49392259-28.53174932 77.80347389-79.69615114 77.80347389-161.42283328 0-60.46758533-15.506547-111.2705913-46.08993963-150.99944292-22.26256342-28.91798452-44.94241034-41.24150382-46.27001678-41.94566992l-51.38422169-24.9066 55.31984903-15.43824149c0.76005134-0.21236699 76.51312466-21.62049388 122.89367153-57.69314789l26.68626406 34.31037763c-29.90654896 23.26106263-68.81697853 40.72486775-97.69397998 51.70836152 7.3856669 6.90877114 15.31032493 15.27679355 23.17785497 25.25185215 25.92496996 32.8672737 56.82753385 90.72683812 56.82753385 179.71251214 0 41.27379365-9.13428268 79.81661723-27.15073954 114.55421432-15.92258894 30.70261597-38.42732487 57.86950042-66.88580131 80.74681094-48.34898254 38.86323758-112.71990538 63.00605918-167.99504672 63.00605919-54.09532101 0-120.06458922-24.53154111-172.16291179-64.02194608-63.95860795-48.48062495-99.18303558-113.50852191-99.18303559-183.10790682 0-62.10318791 18.60760857-123.5307737 53.81216544-177.63975653 10.20357169-15.68289951 20.43694892-28.67208496 29.24460746-38.782513-130.41470669-52.67084508-260.0681205-175.26397338-261.88131594-340.31071444-0.45329917-41.28248688 14.16031133-75.36311106 43.43720983-101.29056534 51.73195813-45.81671762 139.47695923-55.02924178 201.69688617-55.02675748 35.84165903 0.00124155 63.2246363 3.05883577 70.34825994 3.93811164l240.70046061-1.85045265 0.33531736 43.46577382-242.16219375 1.86287172L367.54979408-46.14898102999996zM980.48066021 146.24844746999997L844.18548714 166.20850063l-60.82774085 123.59535335-61.10220439-123.45874234L585.91565991 146.68560172000002l98.53351435-96.26080961-23.43493086-135.74127859 121.99825074 63.96481809 121.85667236-64.24052318-23.1368707 135.79716501L980.48066021 146.24844746999997zM783.06837936 27.757364280000047l-64.23803889-33.68072717 12.34090698 71.47219264-51.880987 50.68378142 71.78763801 10.35135901 32.17180081 65.00430036 32.02773933-65.07633171 71.76155834-10.50908232-51.99400141-50.57076702 12.18318366-71.49578921L783.06837936 27.757364280000047z"  horiz-adv-x="1024" />

    
    <glyph glyph-name="2" unicode="&#58896;" d="M510.3747168 866.82478933c-265.73542827 0-481.1482048-215.40731947-481.1482048-481.13074026s215.4138688-481.13074027 481.1482048-481.13074027c265.7321536 0 481.15257067 215.40731947 481.15257067 481.13074027S776.1068704 866.82478933 510.3747168 866.82478933zM510.3747168-29.074056530000007c-229.08087253 0-414.78557013 185.70033067-414.78557013 414.7681056 0 229.07432427 185.70469653 414.7681056 414.78557013 414.7681056 229.07869013 0 414.78666133-185.69378133 414.78666133-414.7681056C925.16137813 156.62518293000005 739.45340693-29.074056530000007 510.3747168-29.074056530000007zM663.65343253 565.97822507c15.35996267 14.43434773 15.75837013 38.3507872 0.9627264 53.23266133-14.8000096 14.87859947-39.364816 15.34358933-54.71495466 0.84265813l-96.399264-90.7517056-96.31630827 90.7517056c-15.43964373 14.49984-39.91603627 14.12217173-54.7979104-0.84265813-14.80328427-14.95828053-14.47800853-38.7994048 0.95945173-53.23266133l108.4813728-102.1428768 0-22.0193664-77.44272106 0c-21.36008427 0-38.55490347-16.86299413-38.55490347-37.67076694 0-20.724816 17.27777493-37.58781013 38.55490347-37.58781013l77.44272106 0 0-37.6642176-77.44272106 0c-21.36008427 0-38.55490347-16.93285227-38.55490347-37.6773152 0-20.8012224 17.27777493-37.6642176 38.55490347-37.6642176l77.44272106 0 0-79.12476373c0-20.81432107 17.27777493-37.59435947 38.6378592-37.59435947 21.3568096 0 38.5516288 16.7800384 38.5516288 37.59435947l0 79.04835733 77.44272107 0c21.36008427 0 38.6378592 16.86299413 38.6378592 37.67076693 0 20.73136533-17.3585472 37.67076693-38.6378592 37.67076694l-77.36304 0 0 37.740624 77.44272107 0c21.36008427 0 38.6378592 16.86299413 38.6378592 37.58781013 0 20.80777173-17.357456 37.67076693-38.6378592 37.67076693l-77.44272107 0 0 16.32159787L663.65343253 565.97822507 663.65343253 565.97822507 663.65343253 565.97822507zM663.65343253 565.97822507"  horiz-adv-x="1024" />

    
    <glyph glyph-name="dengpao" unicode="&#58922;" d="M894.86329173 122.44926691c-9.86856448 17.09185138-32.41979563 22.54890211-50.37671879 12.18201942L628.71010077 10.052879930000017c-17.95692203-10.3668827-24.51888925-32.63402553-14.65148872-49.72587691 9.86856448-17.09301533 32.42911061-22.53609529 50.38603264-12.1680475l215.77530937 124.5784064C898.17804003 83.10424349000004 904.73185735 105.35625044999995 894.86329173 122.44926691zM810.68359566 156.52119666c37.03389753 21.38111431 49.72238507 68.73648697 28.34126962 105.77038449l0 0c-11.32975559 19.62302919-13.5093157 43.23143907-5.91461831 64.57878984 29.17257671 81.99547904 22.22755726 170.58552491-20.96895431 245.40545365-82.77904953 143.3782784-272.64064398 189.27362503-423.25501611 102.31708445C238.27423346 587.6375335800001 183.10411264 400.27335225 265.88316217 256.89390877000005c43.19883947-74.82225778 116.44231225-125.11631019 202.03196985-140.86689451 22.27878571-4.09948274 41.62704157-17.79042873 52.95330304-37.40879986l0.00582201-0.01047893c21.38111431-37.03389753 68.73648697-49.72238507 105.7703845-28.34126962L810.68359566 156.52119666zM850.14737693 14.104626059999987l-119.89211819-69.21966933c-17.95692203-10.3668827-24.51656135-32.63984754-14.64799573-49.73286286 9.86390755-17.08602937 32.43376754-22.54075221 50.39068956-12.17386952l119.89211818 69.21966934c17.95692203 10.36804779 24.51656135 32.64101149 14.65148872 49.7258769C890.67299385 19.017951010000047 868.10429895 24.47267384999998 850.14737693 14.104626059999987zM307.85366926 773.96549177c5.96119097-10.32496811 18.79754411-13.69676686 28.87102464-7.8811136 10.1445029 5.85640391 13.48137187 18.77425721 7.61099719 28.94321095l-20.8653312 36.14088306c-5.96119097 10.32496811-18.79754411 13.69676686-28.87102464 7.87994851-10.1445029-5.85756786-13.48137187-18.77542229-7.61099719-28.94321095L307.85366926 773.96549177zM143.05818397 216.48472063999998l-36.14088306-20.8653312c-10.32496811-5.96119097-13.69676686-18.79637902-7.87994852-28.87102464 5.85640391-10.1445029 18.77425721-13.48137187 28.94321095-7.61099719l36.14088306 20.8653312c10.32496811 5.96119097 13.69676686 18.79754411 7.87994851 28.87102464C166.14382592 219.01822634999996 153.22597262 222.35509646000003 143.05818397 216.48472063999998zM974.60935339 672.25966251c-5.85756786 10.1445029-18.77542229 13.48137187-28.94321096 7.61099719l-36.14088305-20.8653312c-10.32496811-5.96119097-13.69676686-18.79637902-7.87994852-28.87102464 5.85756786-10.1445029 18.77425721-13.48137187 28.94321095-7.61099719l36.14088306 20.8653312C977.05437298 649.3498277 980.42617173 662.18618083 974.60935339 672.25966251zM138.2147163 495.47193685c3.03182393 11.31461973-3.74320811 22.80853959-15.08460657 25.84735062l-40.30905914 10.80116565c-11.51604281 3.08538141-22.97619911-3.60698653-25.98706517-14.84243285-3.03182393-11.31461973 3.74320811-22.80853959 15.08460658-25.84851456l40.30905913-10.80116566C123.7436928 477.54412146 135.2038491 484.23532544 138.2147163 495.47193685zM688.57815154 813.22435698c11.23661141-3.0108672 22.76196807 3.56856377 25.84851456 15.08460657l10.80116565 40.30905914c3.03880989 11.34139847-3.52781426 22.95524125-14.84243285 25.98706517-11.23661141 3.0108672-22.76196807-3.56856377-25.84851456-15.08460658l-10.80116565-40.30905913C670.69574371 827.87002482 677.26353294 816.25618091 688.57815154 813.22435698z"  horiz-adv-x="1024" />

    
    <glyph glyph-name="pengyou" unicode="&#58925;" d="M788.330586 15.347822999999948c1.971286 0.16371 6.611994 0.634546 8.741579 3.201142 1.685808 2.00917 1.601924 5.581027 1.971286 7.817496-10.158145 154.455757-110.50568 286.222105-256.336215 336.183455l-71.569732 24.526752 59.562069 46.635735c43.760661 34.273592 68.821838 85.528387 68.821838 140.614811 0 98.665786-80.480433 178.920272-179.43305 178.920272-98.952617 0-179.427638-80.254486-179.427638-178.920272 0-55.066129 25.057118-106.319572 68.758248-140.556633l59.605364-46.714208-71.676618-24.422573C150.20209 312.40456099999994 49.711139 180.41091400000005 41.13327 26.144573000000037c0.285478-1.685808 1.089146-4.926186 3.260673-8.270743 1.110793-1.030968 4.725946-2.404239 6.5917-2.485417M50.265859-25.681179000000043c-5.459259 0-27.730599 2.869662-39.589435 20.278407-10.634393 15.575461-10.903635 34.067939-10.612745 34.067939 0.041942 0 0.06359-0.470836 0-1.538334 9.196179 174.381037 125.36677 320.195336 284.066814 374.319794-51.354916 40.267276-84.482537 102.646242-84.482537 172.880587 0 121.508082 98.705022 219.969569 220.462052 219.969569 121.778677 0 220.460699-98.461486 220.460699-219.969569 0-70.25464-33.147916-132.671488-84.544774-172.944177 158.536333-54.33011 273.930316-200.63148 284.193994-375.402175 0.2273-4.06434-0.596662-22.556818-9.708957-32.578313-9.830725-10.811632-24.919115-18.533067-40.558166-19.104023-11.558475-0.39101-142.897282-0.987673-369.842796-0.987673C380.086268-26.670204000000012 103.058989-25.681179000000043 50.265859-25.681179000000043L50.265859-25.681179000000043zM50.265859-25.681179000000043M1025.148766 186.21924c-8.107033 137.232371-99.031089 252.477527-224.234149 295.276221 40.430986 31.647465 66.395952 80.703674 66.395952 135.73192 0 95.505234-78.054547 172.884646-174.35939 172.884646-22.456698 0-43.943312-4.207756-63.648057-11.885895-10.570803-4.122518-15.808173-16.008414-11.700538-26.579216 4.106283-10.56945 16.008414-15.80682 26.579216-11.700538 15.501048 6.035627 31.916707 9.094706 48.770731 9.094706 73.499076 0 133.268151-59.154823 133.268151-131.835349 0-40.536518-18.450536-78.21961-50.614838-103.42285l-59.624306-46.699325 71.631969-24.464515c111.409468-38.094397 188.074509-138.278222 196.23972-255.781494-0.285478-0.105532-0.698136-0.29089-0.920024-0.332832-2.996842-0.03653-22.191515-0.512778-101.151203-0.676488-11.331175-0.041942-20.505707-9.254357-20.463764-20.605827 0-11.309528 9.239474-20.50706 20.567943-20.463764 76.084614 0.16371 97.737644 0.61831 108.492452 1.394918 12.029311 1.231208 17.921522 6.817647 23.402428 10.712865C1026.465212 167.31275200000005 1025.190708 185.62122499999998 1025.148766 186.21924"  horiz-adv-x="1026" />

    
    <glyph glyph-name="yinxingqia2" unicode="&#58935;" d="M199.111111 270.222222l418.133333 0c11.377778 0 19.911111 8.533333 19.911111 19.911111 0 11.377778-8.533333 19.911111-19.911111 19.911111L199.111111 310.044444c-11.377778 0-19.911111-8.533333-19.911111-19.911111C179.2 278.75555599999996 187.733333 270.222222 199.111111 270.222222zM907.377778 759.466667L122.311111 759.466667c-56.888889 0-105.244444-42.666667-105.244444-96.711111l0-503.466667c0-54.044444 45.511111-96.711111 105.244444-96.711111l782.222222 0c56.888889 0 105.244444 42.666667 105.244444 96.711111L1009.777778 662.7555560000001C1012.622222 716.8 964.266667 759.466667 907.377778 759.466667zM59.733333 662.7555560000001c0 31.288889 28.444444 56.888889 62.577778 56.888889l782.222222 0c36.977778 0 65.422222-25.6 65.422222-56.888889l0-122.311111-910.222222 0L59.733333 662.7555560000001zM972.8 159.28888900000004l-2.844444 0c0-31.288889-28.444444-56.888889-62.577778-56.888889L122.311111 102.39999999999998c-34.133333 0-62.577778 25.6-62.577778 56.888889L59.733333 503.466667l913.066667 0L972.8 159.28888900000004z"  horiz-adv-x="1024" />

    
    <glyph glyph-name="daojia" unicode="&#58996;" d="M547.643 531.693c0-9.172 7.439-16.613 16.613-16.613l38.839 0c9.172 0 16.613 7.441 16.613 16.613l0 45.172 326.694 0 0-45.172c0-9.172 7.441-16.613 16.613-16.613l38.84 0c9.171 0 16.612 7.441 16.612 16.613l0 90.346c0 9.167-7.441 16.613-16.612 16.613l-38.84 0c-0.035 0-0.067-0.005-0.103-0.005L818.796 638.6469999999999l0 19.647c0 9.171-7.441 16.613-16.613 16.613l-38.839 0c-9.172 0-16.613-7.441-16.613-16.613l0-19.647L603.197 638.6469999999999c-0.035 0-0.067 0.005-0.103 0.005l-38.839 0c-0.035 0-0.068-0.005-0.104-0.005l-0.189 0c-9.173 0-16.612-7.441-16.612-16.614l0-28.553c0-1.044 0.107-2.061 0.292-3.052L547.642 531.693zM1024.438 435.307c0 0.325-0.011 0.634-0.032 0.941-0.021 0.271-0.162 0.476-0.194 0.736 0 0.022-0.022 0.042-0.022 0.054-0.864 6.668-6.445 11.86-13.346 11.86-2.499 0-4.716-0.849-6.728-2.039l-0.142 0.167L825.059 364.63l0 85.664 85.78 0c9.173 0 16.614 7.441 16.614 16.613l0 38.84c0 9.171-7.441 16.613-16.614 16.613L654.687 522.36c-9.172 0-16.613-7.441-16.613-16.613l0-38.84c0-9.171 7.441-16.613 16.613-16.613l74.271 0-170.034-76.43c-6.685-3.625-11.28-10.622-11.28-18.756l0-47.525c0-0.162 0.031-0.227 0.031-0.367 0-0.064-0.031-0.107-0.031-0.185 0-0.312 0.01-0.627 0.031-0.951 0.012-0.249 0.162-0.465 0.194-0.714 0.012-0.022 0.012-0.043 0.022-0.055 0.865-6.673 6.447-11.865 13.347-11.865 2.499 0 4.716 0.855 6.718 2.024l0.162-0.152 184.864 86.648 0-51.856-194.07-90.743c-6.673-3.634-11.269-10.621-11.269-18.765l0-47.536c0-0.141 0.031-0.205 0.043-0.347 0-0.075-0.043-0.13-0.043-0.184 0-0.324 0.021-0.638 0.031-0.952 0.021-0.248 0.162-0.476 0.194-0.725 0-0.021 0.012-0.043 0.012-0.064 0.876-6.663 6.446-11.854 13.357-11.854 2.499 0 4.705 0.865 6.728 2.033l0.141-0.162 184.876 89.205 0-58.195-0.011-2.218c0-17.565-14.223-31.81-31.787-31.81l0-0.021c-11.822-0.141-21.383-9.712-21.395-21.566l-0.033-28.76c-0.021-11.887 9.562-21.523 21.428-21.632l0-0.098c55.053 0 99.971 42.854 103.528 97.02 0.174 1.124 0.347 2.26 0.347 3.428l0 3.418 0 0.021 0 0.011 0 68.892 178.905-97.694 0.152 0.162c2.012-1.178 4.229-2.033 6.728-2.033 6.9 0 12.481 5.202 13.346 11.864 0.012 0.012 0.012 0.033 0.022 0.055 0.032 0.26 0.173 0.465 0.184 0.725 0.021 0.314 0.032 0.628 0.032 0.952 0 0.065-0.032 0.108-0.032 0.173 0 0.141 0.032 0.217 0.032 0.367l0 47.526c0 8.144-4.575 15.131-11.27 18.765l-132.604 71.24 132.614 57.87c6.675 3.623 11.271 10.626 11.271 18.754l0 47.536c0 0.157-0.032 0.222-0.043 0.368C1024.396 435.188 1024.438 435.242 1024.438 435.307zM247.042 639.8679999999999L17.052 639.8679999999999c-9.172 0-16.614-7.441-16.614-16.613l0-38.84c0-9.173 7.441-16.614 16.614-16.614l57.425 0-60.108-99.716c-1.973-3.271-2.524-6.994-1.858-10.469-0.177-0.971-0.283-1.968-0.283-2.991l0-38.839c0-9.172 7.441-16.613 16.614-16.613l167.787 0 38.624 0 0.222 0c9.167 0 16.613 7.441 16.613 16.613l0 76.106c0 9.182-7.447 16.613-16.613 16.613l-38.845 0c-9.172 0-16.614-7.431-16.614-16.613l0-20.653-79.592 0 58.2 96.563 88.419 0c9.171 0 16.613 7.441 16.613 16.614l0 38.84C263.654 632.427 256.213 639.8679999999999 247.042 639.8679999999999zM454.652 639.8679999999999l-38.845 0c-9.167 0-16.613-7.43-16.613-16.613L399.194 192.12l-0.007-1.382c0-17.286-13.788-31.346-30.967-31.789l-0.566 0.002c-11.94 0.01-21.643-9.66-21.653-21.6l-0.033-28.771c-0.027-11.875 9.557-21.525 21.421-21.634l0-0.085c52.631 0 96.101 39.164 102.917 89.935 0.61 1.729 0.958 3.58 0.958 5.517L471.264 623.255C471.265 632.438 463.824 639.8679999999999 454.652 639.8679999999999zM358.678 259.755L358.678 491.901c0 9.172-7.441 16.613-16.613 16.613l-38.84 0c-9.173 0-16.614-7.441-16.614-16.613l0-232.146c0-9.161 7.441-16.614 16.614-16.614l38.84 0C351.236 243.14099999999996 358.678 250.59400000000005 358.678 259.755zM246.122 165.69899999999996L168.08 165.69899999999996l0 77.441 67.124 0c9.167 0 16.614 7.441 16.614 16.614l0 38.851c0 9.161-7.447 16.613-16.614 16.613L168.08 315.21799999999996l0 53.17c0 9.184-7.441 16.62-16.613 16.62l-38.84 0c-9.172 0-16.613-7.436-16.613-16.62l0-53.17L28.89 315.21799999999996c-9.172 0-16.613-7.452-16.613-16.613l0-38.851c0-9.173 7.441-16.614 16.613-16.614l67.124 0 0-77.441L17.966 165.69899999999996c-9.167 0-16.614-7.452-16.614-16.613l0-38.85c0-9.173 7.447-16.614 16.614-16.614l228.156 0c9.172 0 16.613 7.441 16.613 16.614l0 38.85C262.735 158.24699999999996 255.294 165.69899999999996 246.122 165.69899999999996z"  horiz-adv-x="1025" />

    
    <glyph glyph-name="xiaoxi" unicode="&#58886;" d="M870.20635446 517.41359157L515.65516724 517.41359157c-23.75858525 0-43.86200204 20.10341801-43.86200205 43.86200204s20.10341801 43.86200204 43.86200205 43.86200205l354.55118722 0c23.75858525 0 43.86200204-20.10341801 43.86200205-43.86200205S893.96493972 517.41359157 870.20635446 517.41359157L870.20635446 517.41359157 870.20635446 517.41359157zM786.13751641 340.13799796L515.65516724 340.13799796c-23.75858525 0-43.86200204 20.10341801-43.86200205 43.86200204 0 23.75858525 20.10341801 43.86200204 43.86200205 43.86200204L786.13751641 427.86200204c23.75858525 0 43.86200204-20.10341801 43.86200204-43.86200204C829.99951845 360.24141475 809.89610166 340.13799796 786.13751641 340.13799796L786.13751641 340.13799796 786.13751641 340.13799796zM1316.13671424 473.55158832C1316.13671424 767.79252273 1038.3440318 1005.37837037 696.5859281 1005.37837037 353.00024016 1005.37837037 75.20755773 767.79252273 75.20755773 473.55158832c0-160.82734285 87.7240053-312.5167682 239.41343065-416.68902428 20.10341801-14.62066775 47.51716929-9.13791749 62.13783704 10.96550053 14.62066775 20.10341801 9.13791749 47.51716929-10.96550051 62.13783703-127.93084131 85.89642228-201.03417887 211.99967937-201.03417887 343.58568672C164.75914604 718.44777043 402.34499367 917.65436507 696.5859281 917.65436507c292.4133502 0 531.82678206-199.20659463 531.82678205-442.27519253 0-244.89618091-237.58584764-442.27519252-531.82678205-442.27519253-1.82758301 0-5.48275026-1.82758301-7.31033327-1.82758301-20.10341801 3.65516724-42.03441903-7.31033327-49.34475352-27.41375127-9.13791749-23.75858525-63.96542005-63.96542005-129.75842432-102.34467306 23.75858525 80.41367203 12.79308353 98.68950581 5.48275025 109.65500633-9.13791749 14.62066775-25.58616827 21.93100102-42.03441903 21.93100101-23.75858525 0-43.86200204-20.10341801-43.86200204-43.86200204 0-7.31033327 1.82758301-16.44825076 5.48275026-21.93100102-3.65516724-25.58616827-23.75858525-84.06883806-45.68958628-138.89634182-7.31033327-16.44825076-3.65516724-36.55166877 10.96550052-49.34475352 9.13791749-7.31033327 20.10341801-12.79308353 31.06891851-12.79308352 5.48275026 0 12.79308353 1.82758301 18.27583499 3.65516723 51.17233652 21.93100102 204.6893461 95.03433857 259.51684866 173.62042759C1043.82678206-52.79244227000004 1316.13671424 182.96582113 1316.13671424 473.55158832L1316.13671424 473.55158832 1316.13671424 473.55158832zM1316.13671424 473.55158832"  horiz-adv-x="1366" />

    
    <glyph glyph-name="gwc" unicode="&#59064;" d="M310.44711029 91.30218205000006c-53.66237277 0-97.53532423-43.94360081-97.53532424-97.5395634 0-53.73726405 43.87436268-97.61162673 97.53532424-97.61162674 53.73726405 0 97.61162673 43.87436268 97.61162672 97.61162674C408.05873701 47.35858126000005 364.18437296 91.30218205000006 310.44711029 91.30218205000006M17.75353152 871.85042069l0-97.61445332 97.61021413 0 175.64864729-370.72777271-68.38748532-117.04917067c-4.78449609-14.57815794-9.71312019-34.15841729-9.7131202-48.81005256 0-53.66237277 43.87436268-97.53673683 97.53532425-97.53673682l585.3942219 0 0 97.53673682-565.88461465 0c-4.93286329 0-9.71594538 4.93145069-9.71594541 9.79224927l0 4.85938599 43.94360082 82.89075336 360.94117525 0c38.94291338 0 68.24053211 19.58167196 82.89216734 48.80863995l175.57516998 317.06115939c9.86007478 9.8629 9.86007478 14.65163524 9.86007477 24.43964535 0 29.29761872-19.58025935 48.73516266-48.80722595 48.73516263l-722.02223933 0-43.95066656 97.61445332L17.75353152 871.85042069zM798.296117 91.30218205000006c-53.66237277 0-97.53673683-43.94360081-97.53673684-97.5395634 0-53.73726405 43.87577667-97.61162673 97.53673684-97.61162674 53.67085113 0 97.5452152 43.87436268 97.54521519 97.61162674C895.84133219 47.35858126000005 851.96696813 91.30218205000006 798.296117 91.30218205000006"  horiz-adv-x="1024" />

    
    <glyph glyph-name="jilu" unicode="&#59428;" d="M1010.176 733.952 925.3376 649.3696 777.3696 797.3888 862.1568 882.2272C880.5376 900.608 910.4384 900.608 929.0752 882.2272L1010.176 801.1264C1028.5568 782.7456 1028.5568 752.8448 1010.176 733.952ZM426.7008 165.632 256 128 293.5808 298.7008 752.2816 772.096 897.6384 626.9952 426.7008 165.632ZM113.6128 725.4016C97.8432 725.4016 85.3504 712.0896 85.3504 698.7264L85.3504-15.9744C85.3504-28.2624 96.512-42.6496 111.4624-42.6496 111.4624-42.6496 814.6944-42.9568 828.8256-42.9568 842.9568-42.9568 853.3504-29.5936 853.3504-15.9744L853.3504 384.0512 938.7008 469.4016 938.7008-65.5872C938.7008-99.9936 910.9504-128 876.544-128L62.4128-128C28.0064-128 0-99.9936 0-65.5872L0 748.5952C0 783.2576 27.7504 810.752 62.4128 810.752L597.3504 810.752 512 725.4016 113.6128 725.4016Z"  horiz-adv-x="1024" />

    
    <glyph glyph-name="zhima" unicode="&#58986;" d="M712 809.6c-163.2 134.4-328 81.6-384-38.4-9.6-19.2-60.8-155.2 78.4-308.8 0 0 0 0 1.6-1.6 1.6-3.2 4.8-4.8 6.4-8 70.4-73.6 169.6-124.8 169.6-230.4 0-132.8-139.2-240-281.6-155.2 0 0-22.4 14.4-38.4 33.6-19.2 24-131.2 166.4 96 334.4-27.2 27.2-112 123.2-102.4 265.6C129.6 579.2 86.4 446.4 86.4 324.79999999999995c0-276.8 195.2-454.4 422.4-446.4 264 8 433.6 214.4 433.6 478.4C942.4 512 864 683.2 712 809.6z"  horiz-adv-x="1024" />

    
    <glyph glyph-name="chongzhi" unicode="&#58918;" d="M960.67384695 655.9262216l-453.53440665 0c-15.9956601-25.27491043-35.52627269-51.87542803-59.12208067-76.44334796-64.159388-66.98735001-176.30575629-126.99316882-179.22209211-128.05365456 0 0 230.39052965 12.90257664 230.39052963 12.81420282 0-12.99095045-0.35349524-26.07027474-0.70699048-39.149599l0.70699048 0.7069905c-3.97682157-307.36412048-185.408259-463.96251653-460.95780691-525.02882111l0 95.97396057c149.79361248 45.24739209 263.26558796 176.12900866 269.27500723 338.73682398l-218.01819587-12.10721233 0 128.05365457c0 0 118.15578755 79.00618853 179.22209211 166.40788926 8.66063363 12.46070759 24.03767705 38.08911326 24.03767704 38.08911326l-267.33078334 0 0 115.85806842 320.17832333 0 25.54003185 102.07175364 217.66470062 0-25.54003186-102.07175364 243.11635868-0.35349525 51.16843753 38.4426085 140.77948359-153.59368642L960.67384695 655.9262216zM550.44260851 425.8008134c11.31184801 42.15430864 38.44260851 38.44260851 38.44260852 38.4426085l166.40788926 12.81420285 51.16843753 51.16843753 140.77948359-153.59368643-268.83313815-25.62840566c0 0-2.47446676-272.19134304 0-294.46154384 3.71170014-33.49367501 38.44260851-38.44260851 38.44260852-38.44260852s114.3557136 0 115.23945172 0c45.60088734 0.53024288 38.44260851 63.98264037 38.44260853 63.98264038l0 25.62840568 115.23945173 0c0 0 0.08837381-114.62083504 0-115.23945173-12.01883853-79.00618853-102.4252489-76.79684321-102.42524891-76.79684322s-200.96205003 0-204.85049778 0c-142.63533365 0-128.05365456 102.4252489-128.05365456 102.42524889L550.44260851 425.8008134z"  horiz-adv-x="1024" />

    
    <glyph glyph-name="wodeqianbaowodeqianbao" unicode="&#58905;" d="M757.05262545 472.08520227c-48.67643325 0-88.29583141-39.55448743-88.29583141-88.21104951s39.61939817-88.21237511 88.29583141-88.21237513c48.65656337 0 88.25476607 39.55713605 88.25476607 88.21237513C845.30739152 432.52939053 805.70918882 472.08520227 757.05262545 472.08520227L757.05262545 472.08520227zM757.05262545 339.83552585999996c-24.32828105 0-44.12738304 19.75406113-44.12738304 44.0399525 0 24.28589139 19.7991007 44.04127682 44.12738304 44.04127682 24.30708556 0 44.08499207-19.75671105 44.0849921-44.04127682C801.13761755 359.5909113 781.35971231 339.83552585999996 757.05262545 339.83552585999996L757.05262545 339.83552585999996zM1000.01486158 251.49332925l0 265.02261428 0.01722124 0 0 176.68174326c0 85.23575395-69.36176578 154.58559703-154.59619414 154.58559705L182.8813382 847.78328384c-85.23442835 0-154.59486981-69.35116739-154.59619414-154.58559705l0-618.38345219c0-85.23442835 69.36176578-154.59619413 154.59619414-154.59619412L845.43588868-79.78195824c85.23575395 0 154.59751844 69.36176578 154.59751845 154.59486982l0 176.68041897L1000.01486158 251.49332925 1000.01486158 251.49332925zM955.85965891 74.81158598000002c0-60.90747161-49.53881969-110.42509583-110.42377151-110.42509583L182.8813382-35.613509850000014c-60.88495183 0-110.42509583 49.51762421-110.42509583 110.42509583l0 618.3834522c0 60.86375635 49.540144 110.42642015 110.42509583 110.42642013L845.43588868 803.62145831c60.88495183 0 110.42509583-49.56133947 110.42509583-110.42642013l0-132.50932067L712.92524371 560.68571751c-97.42042714 0-176.68041897-79.28251161-176.68041896-176.68041896 0-97.44427253 79.25999053-176.68174329 176.68041896-176.68174328l242.93441648 0L955.85965891 74.81158598000002 955.85965891 74.81158598000002zM712.92524371 251.49332925c-73.06962631 0-132.51064497 59.43969435-132.51064498 132.5119693 0 73.06962631 59.44101867 132.50932066 132.51064498 132.50932066l243.60471935 0 0-265.02261427L712.92524371 251.49200494000002 712.92524371 251.49332925z"  horiz-adv-x="1024" />

    
    <glyph glyph-name="zjt" unicode="&#58951;" d="M721.768049-61.13819599999999c-7.789407 0-15.579837 2.935865-21.571295 8.867972l-419.492096 414.459476c-5.812379 5.752004-9.106402 13.601786-9.106402 21.810748 0 8.207939 3.295046 16.057721 9.106402 21.809725l419.492096 414.459476c11.983939 11.983939 31.457456 11.744485 43.382043-0.239454 11.864212-12.103666 11.744485-31.517831-0.239454-43.382043L345.955778 384l397.382543-392.648728c11.983939-11.864212 12.103666-31.277354 0.239454-43.382043C737.586316-58.08260399999995 729.678206-61.13819599999999 721.768049-61.13819599999999z"  horiz-adv-x="1024" />

    
    <glyph glyph-name="xiajiantou" unicode="&#58914;" d="M922.5829688 636.85781225c19.64808505 19.29041318 51.44242656 19.29041318 71.02824949 0 19.61629119-19.25862062 19.61629119-50.5045323 0-69.79361988L547.38562759 131.15940899999998c-19.61629119-19.25994493-51.41195831-19.25994493-70.99645564 0L30.19537509 567.06419108c-9.82404252 9.65977856-14.72016621 22.30015252-14.7201662 34.91270685 0 12.64037396 4.89612498 25.28207225 14.75196006 34.88091432 19.61629119 19.29041318 51.38149006 19.29041318 70.99778126 0L511.88739977 235.86573701999998 922.5829688 636.85781225 922.5829688 636.85781225z"  horiz-adv-x="1024" />

    
    <glyph glyph-name="shijian" unicode="&#58924;" d="M708.426604-89.24516500000004a518.04514 518.04514 0 0 0-393.128632 0A512.874416 512.874416 0 0 0 38.382648 187.87494000000004a520.45131799 520.45131799 0 0 0 0 392.207116A513.69354 513.69354 0 0 0 315.297972 857.202161a518.04514 518.04514 0 0 0 393.128632 0 512.72082999 512.72082999 0 0 0 276.915324-277.120105 517.58438201 517.58438201 0 0 0 0-392.207116 511.748119 511.748119 0 0 0-276.915324-277.120105zM926.160173 555.508317c-45.512613 110.274655-134.950785 195.514813-242.307308 242.460894-219.883771 96.093559-495.007259-19.966163-586.288461-242.460894-90.820445-221.266044 20.785288-497.72061001 242.307307-585.520532 111.247365-44.079145 235.447139-45.307832 343.981154 0a456.354815 456.354815 0 0 1 242.307308 242.460894c45.307832 108.58521001 44.898269 234.32084199 0 343.059638z m-193.211025-278.246401H493.96953399a36.092679 36.092679 0 0 0-22.88429399 8.140051c-10.034277 5.836263-15.051415 15.051415-15.051416 27.645457V665.015043c0 41.314599 64.76204199 41.314599 64.76204199 0v-316.233307h212.15328201c18.993453 0 35.734312-16.74086 35.734313-35.734312a35.32475001 35.32475001 0 0 0-35.734313-35.785508z"  horiz-adv-x="1024" />

    
    <glyph glyph-name="hongbao" unicode="&#58937;" d="M502.1696 347.9552c-84.10453333 0-152.91733333 65.536-158.9248 148.54826667L94.208 602.99946667v-673.92853334c0-23.48373333 19.11466667-42.5984 42.5984-42.5984h731.27253333c23.48373333 0 42.5984 19.11466667 42.5984 42.5984V602.99946667l-249.58293333-105.94986667c-6.00746667-83.5584-74.82026667-149.0944-158.9248-149.0944z m365.90933333 534.1184H136.8064c-23.48373333 0-42.5984-19.11466667-42.5984-42.5984v-121.2416l278.528-118.51093333c28.94506667 40.41386667 75.91253333 67.1744 129.4336 67.1744 53.52106667 0 100.48853333-26.76053333 129.4336-67.1744l278.528 118.51093333V839.4752c0 23.48373333-18.56853333 42.5984-42.05226667 42.5984z m-310.20373333-280.71253333L502.1696 513.4336000000001 447.01013333 601.36106667h-46.42133333l68.8128-100.48853334h-46.42133333v-17.47626666h58.9824l0.54613333-0.54613334v-24.576h-60.07466667v-17.47626666h59.52853334v-43.69066667h40.96v43.69066667h59.52853333v17.47626666H522.92266667v24.576l0.54613333 0.54613334H582.99733333v17.47626666h-46.96746666L604.84266667 601.36106667h-46.96746667z"  horiz-adv-x="1024" />

    
    <glyph glyph-name="feizhu" unicode="&#58903;" d="M930.51312772 603.67204919c54.91801198 87.11133019 64.38663513 178.01010784 64.38663384 178.01010784H426.78239547c-219.67204919 0-397.68215703-178.01010784-397.68215703-397.68215703s178.01010784-397.68215703 397.68215703-397.68215703c200.73480289 0 365.48884013 147.71051527 393.89470699 340.87042068 183.69128224 121.19837149 176.11638346 276.48378556 176.11638477 276.48378554S949.45037275 603.67204919 930.51312772 603.67204919zM716.52225164 359.38158058C716.52225164 359.38158058 716.52225164 359.38158058 716.52225164 359.38158058c-13.2560719-149.60423966-138.24189214-267.01516239-289.73985617-267.01516241-160.96658719 0-291.63358183 130.66699465-291.63358183 291.63358183S265.81580699 675.63358183 426.78239547 675.63358183h270.80261114 145.81679092c0 0-20.83097069-92.79250331-32.19331692-111.72974834 11.36234753 0 41.66194007 0 41.66194007 0C822.57082685 482.47367643 784.6963368 397.2560719 716.52225164 359.38158058zM311.26519711 423.7682157m-39.76821571 0a39.7682157 39.7682157 0 1 1 79.53643141 0 39.7682157 39.7682157 0 1 1-79.53643141 0ZM570.70546073 423.7682157m-39.76821571 0a39.7682157 39.7682157 0 1 1 79.53643141 0 39.7682157 39.7682157 0 1 1-79.53643141 0Z"  horiz-adv-x="1024" />

    
    <glyph glyph-name="zhibo" unicode="&#59006;" d="M890.14847893 103.65994560000001h-756.29695786c-59.921536 0-108.67238933 48.75085333-108.67238934 108.6734816V558.21528747c0 59.921536 48.75085333 108.67238933 108.67238934 108.6723904h756.29695786c59.921536 0 108.67238933-48.75085333 108.67238934-108.6723904v-345.88186027c0-59.92262827-48.74976107-108.67348053-108.67238934-108.6734816z m-756.29695786 545.7633056c-50.29208853 0-91.20796373-40.9158752-91.20796374-91.20796373v-345.88186027c0-50.29208853 40.9158752-91.20905493 91.20796374-91.209056h756.29695786c50.29208853 0 91.20796373 40.9158752 91.20796374 91.209056V558.21528747c0 50.29208853-40.914784 91.20796373-91.20796374 91.20796373h-756.29695786zM332.55411627 522.299696c1.30983147 9.4962816 2.29220587 18.9925632 3.27458026 28.489936l31.763424-4.2569536c-0.9823744-8.5139072-1.96474773-16.3728992-2.94712106-24.23189013h123.45275093v-29.14376107h-128.03607147c-1.6372896-7.53153387-3.27458027-14.7356096-4.58441173-21.93968533h92.34424213v-189.6003552h46.82649174v-28.489936H202.22474773v28.489936h45.18920214V471.21625067h75.97134293c1.6372896 7.53153387 3.27458027 14.7356096 4.58441173 21.93968533H208.44644907v29.14376h124.1076672z m84.4852512-101.18451627v22.59460054H278.19609173v-22.59460054h138.84327574z m0-46.17157653v21.6122272H278.19609173v-21.6122272h138.84327574z m0-46.501216v21.94077653H278.19609173v-21.94077653h138.84327574z m0-46.82649173v21.94077653H278.19609173v-21.94077653h138.84327574zM667.87218347 261.31350080000004v-14.40815147h-28.489936V378.21818347c-2.619664-1.30983147-5.239328-2.94712213-7.858992-4.2569536l-12.7708608 20.6298528v-7.858992c-7.858992-4.58441173-16.04544107-8.5139072-23.90443307-12.44340267v-92.3453344c0-20.95731093-10.478656-31.763424-31.43596693-31.76342507h-27.5064704l-6.8766176 29.79867734c8.18644907-1.30983147 16.04544107-1.96474773 23.57697493-1.9647488 7.53153387 0 11.46102933 3.92949547 11.46102933 11.78848746v70.40455787c-11.46102933-4.58441173-22.92205867-8.8424576-34.05562986-12.7708608l-7.858992 30.78214187c14.40815147 3.27458027 28.16247787 7.53153387 41.91462186 12.77086186v68.766176h-35.3654624v29.47121814h35.3654624v59.27098666h30.78105067v-59.27098666h25.21535573v-29.47121814h-25.21535573v-55.34149013c8.18644907 3.92949547 16.04544107 8.18644907 23.90443307 12.7708608v-16.70035733c28.16247787 10.80611307 49.77470507 24.2318912 64.83668053 39.95096533h-55.3404v26.8515552h33.40180587c-3.93058773 8.5139072-8.5139072 16.3728992-13.09831894 23.57697493l25.54172267 9.82373974c4.91186987-9.4962816 9.4951904-20.6298528 13.7532352-33.40180587h20.30348693v41.58825493c-22.2671424-1.30983147-45.8452096-1.96474773-71.05947413-1.96474773l-8.8424576 25.54172267c69.0947264 0 127.38224747 5.56678613 174.53619733 16.3728992l14.40815147-24.55934934c-23.2495168-5.8942432-50.101072-10.15119787-80.55575573-13.09831893v-43.8804608h19.9760288c6.54915947 12.77086187 12.44231147 26.19663893 17.35418133 40.2773312l26.52518827-9.16882347c-5.239328-11.1335712-10.80611307-21.6122272-16.70035734-31.10850773h37.002752v-26.8515552h-58.94352853c16.70035733-14.7356096 39.6235072-27.83392853 69.0947264-39.29495787l-13.42686933-25.54172266c-4.58332053 2.29220587-8.5139072 4.58441173-12.44231147 6.54915946v-135.2412384h-28.489936v14.40815147h-108.71495893z m70.07600853 179.1216992h-1.30983253v-42.56953707h-28.4888448v42.56953707h-1.30983147c-12.44340373-20.30239467-29.47121813-37.65766827-51.08453653-52.06691093h139.17182613c-22.92314987 14.7367008-41.91462187 32.0919744-56.9787808 52.06691093z m-70.07600853-77.28117547v-26.52518826h41.58716373v26.52518826h-41.58716373z m0-50.7570784v-25.21426453h41.58716373v25.21426453h-41.58716373z m108.71605013 24.23189014v26.52518826h-40.93224747v-26.52518826h40.93224747z m0-49.44506347v25.21426453h-40.93224747v-25.21426453h40.93224747z"  horiz-adv-x="1024" />

    
    <glyph glyph-name="shuru" unicode="&#58926;" d="M863.898914 457.901857c-18.405996 0-31.992992-14.926996-31.992992-33.314992v-407.5209c0-43.811989-33.926992-81.06198-77.725981-81.061981H158.885086c-43.794989 0-94.747977 37.249991-94.747977 81.061981V613.4118189999999c0 43.849989 50.952988 90.596978 94.747977 90.596978H499.160003c18.399996 0 33.275992 13.596997 33.275992 32.001992 0 18.405996-14.874996 31.999992-33.275992 31.999992H158.886086C71.380108 768.011781 0.151125 701.119798 0.151125 613.409819v-596.344854C0.151125-70.62701400000003 71.378108-128 158.886086-128h595.295855c87.536979 0 141.709965 57.372986 141.709965 145.064965V424.586865c0 18.387996-13.590997 33.314992-31.992992 33.314992z m131.149968 361.421912l-48.735988 48.809988c-37.085991 37.154991-102.252975 37.154991-139.329966 0l-92.096978-108.284974-490.79888-469.939885v-11.469997l-0.365-1.962-61.739985-209.317949 45.331989-40.46599 198.033952 69.841983 2.497999-0.525h9.716998L886.889908 587.493825l108.158974 88.339979c38.398991 38.461991 38.398991 104.999974 0 143.489965zM249.176064 113.13194099999998l28.832993 91.841978 57.604986-57.682986-86.437979-34.159992z m145.020965 68.502983l-84.78598 84.90198 438.772893 436.598893 82.06998-82.20298-436.056893-439.297893zM948.629893 726.3027910000001l-65.389984-65.432984-95.190976 95.337977 65.354984 65.429984c6.181998 6.173998 14.405996 9.557998 23.239994 9.557998 8.812998 0 17.052996-3.383999 23.213994-9.559998l48.702988-48.795988c12.845997-12.847997 12.845997-33.719992 0.069-46.536989z"  horiz-adv-x="1024" />

    
    <glyph glyph-name="weitao" unicode="&#59100;" d="M232.03176144 391.06990501c0 53.73127811 12.72582902 106.0485752 38.17748708 152.7099483 9.89786702 16.96777203 2.82796201 38.17748707-14.13981003 48.0753541s-38.17748707 2.82796201-48.07535408-14.13981002c-31.10758207-56.55924012-46.6613731-121.60236624-46.6613731-186.64549238 0-73.52701215 19.79573404-145.6400433 59.38720212-207.8552074 7.06990501-11.31184801 18.38175303-16.96777203 29.69360106-16.96777205 7.06990501 0 12.72582902 1.41398101 18.38175303 5.65592402 16.96777203 9.89786702 21.20971504 32.52156306 11.31184802 48.0753541-31.10758207 52.31729711-48.07535409 110.29051822-48.0753541 171.09170133zM99.11754718 391.06990501c0 111.70449922 38.17748707 219.16705543 108.87653723 302.5919346 12.72582902 14.13981003 11.31184801 36.76350606-4.24194302 49.4893351-14.13981003 12.72582902-36.76350606 11.31184801-49.4893351-4.24194302-82.01089817-94.73672719-125.84430924-219.16705543-125.84430924-347.83932668 0-137.15615727 49.48933509-267.24240953 139.98411927-363.39311771 7.06990501-7.06990501 16.96777203-11.31184801 25.45165805-11.31184803 8.48388603 0 16.96777203 2.82796201 24.03767704 9.89786702 14.13981003 12.72582902 15.55379103 35.34952507 1.41398102 49.4893351-77.76895517 83.42487916-120.18838525 196.54335939-120.18838525 315.31776362zM803.28008657 184.62867859999994c38.17748707 60.80118311 59.38720211 132.91421426 59.38720212 207.85520743 0 65.04312613-15.55379103 130.08625226-46.6613731 186.64549235-9.89786702 16.96777203-31.10758207 24.03767705-48.07535408 14.13981004s-24.03767705-31.10758207-14.13981003-48.07535409c25.45165805-46.6613731 38.17748707-98.9786702 38.17748708-152.7099483 0-60.80118311-16.96777203-120.18838525-48.0753541-169.67772036-9.89786702-16.96777203-5.65592402-38.17748707 11.31184802-48.07535409 5.65592402-4.24194301 12.72582902-5.65592402 18.38175303-5.65592401 11.31184801-1.41398101 22.62369604 4.24194301 29.69360106 15.55379103zM869.73719371 738.9092316900001c-12.72582902 15.55379103-35.34952507 16.96777203-49.4893351 4.24194302-14.13981003-12.72582902-16.96777203-35.34952507-4.24194302-49.4893351 70.69905013-82.01089817 108.87653721-189.47345437 108.87653723-302.5919346 0-118.77440423-43.83341109-231.89288446-121.60236625-315.31776362-12.72582902-14.13981003-12.72582902-36.76350606 1.413981-49.4893351 7.06990501-5.65592402 15.55379103-9.89786702 24.03767705-9.89786702 9.89786702 0 18.38175303 4.24194301 25.45165805 11.31184803 90.49478418 97.56468919 139.98411927 226.23696045 139.98411928 363.39311771 1.41398101 130.08625226-43.83341109 253.1025995-124.43032824 347.83932668zM739.65094144 386.82796201c0 124.43032825-101.8066322 226.23696045-226.23696043 226.23696044s-226.23696045-101.8066322-226.23696046-226.23696044c0-62.21516412 24.03767705-120.18838525 69.28506915-162.60781532 14.13981003-14.13981003 36.76350606-12.72582902 49.4893351 1.41398099 14.13981003 14.13981003 12.72582902 36.76350606-1.41398101 49.48933511-31.10758207 29.69360106-48.07535409 69.28506914-48.07535409 111.70449922 0 86.25284116 69.28506914 155.5379103 155.5379103 155.53791031s155.5379103-69.28506914 155.5379103-155.53791031-69.28506914-155.5379103-155.5379103-155.53791031h-7.06990501c-1.41398101 0-2.82796201 0-2.82796201-1.41398101-1.41398101 0-2.82796201 0-2.827962-1.41398099 0 0-1.41398101 0-1.41398101-1.41398101-1.41398101 0-1.41398101-1.41398101-2.827962-1.41398101s-1.41398101-1.41398101-2.82796201-1.41398099-1.41398101-1.41398101-2.827962-2.82796201l-2.82796201-2.82796201-1.41398101-1.41398101-57.97322111-76.35497414c-11.31184801-15.55379103-8.48388603-38.17748707 7.069905-49.48933509 7.06990501-4.24194301 14.13981003-7.06990501 21.20971505-7.06990502 11.31184801 0 21.20971504 4.24194301 28.27962006 14.13981002l48.0753541 63.62914513c115.94644224 8.48388603 207.85520741 106.0485752 207.8552074 224.82297945z"  horiz-adv-x="1024" />

    
    <glyph glyph-name="wendajia" unicode="&#59102;" d="M512 854.57287773c-84.46179857 0-167.41535073-22.62369604-239.81117808-64.85459534-61.83810252 55.80511692-156.85762591 75.41232014-167.41535072 76.92056656-15.08246403 3.01649281-28.65668166-3.01649281-37.70616009-15.08246402-9.04947843-12.06597121-9.04947843-28.65668166-1.50824638-40.72265288 0 0 37.70616007-64.85459532 46.75563847-140.26691547 3.01649281-21.11544964 21.11544964-36.19791367 42.23089931-33.18142087 21.11544964 3.01649281 36.19791367 21.11544964 33.18142086 42.23089927-4.52473921 33.18142087-12.06597121 64.85459532-21.11544965 90.49478418 27.14843525-12.06597121 54.29687052-28.65668166 70.88758093-49.7721313 12.06597121-16.59071043 34.68966726-19.60720323 51.2803777-9.0494784 66.36284173 45.24739209 144.79165469 69.37933454 224.72871406 69.37933453 221.71222124 0 402.7017896-180.98956836 402.70178959-402.70178961S733.71222124-24.73477521999996 512-24.73477521999996s-402.7017896 180.98956836-402.7017896 402.7017896c0 54.29687052 10.55772482 107.08549461 31.67317446 156.85762593 7.54123201 19.60720323 0 40.72265287-19.60720323 49.7721313-19.60720323 7.54123201-40.72265287 0-49.7721313-19.60720325-25.64018885-58.82160972-37.70616007-122.16795865-37.70616008-187.02255398 0-263.94312052 214.17098922-478.11410975 478.11410975-478.11410974s478.11410975 214.17098922 478.11410975 478.11410974C990.11410975 640.40188849 775.94312052 854.57287773 512 854.57287773zM680.92359714 503.15146583c-1.50824641 45.24739209-19.60720323 85.97004496-52.78862412 117.64321944-33.18142087 31.67317446-76.92056656 46.7556385-120.65971223 46.75563847-66.36284173-3.01649281-126.69269785-43.73914569-150.82464031-107.08549459-6.03298562-15.08246403-1.50824641-33.18142087 12.06597124-43.73914568l39.21440648-30.16492807c16.59071043-13.57421762 40.72265287-10.55772482 52.7886241 6.03298561 13.57421762 16.59071043 10.55772482 40.72265287-6.03298562 52.7886241l-13.57421763 10.55772484c16.59071043 21.11544964 42.2308993 34.68966726 69.37933454 34.68966727 24.13194244 0 48.2638849-7.54123201 66.36284173-25.64018886 18.09895683-16.59071043 28.65668166-40.72265287 30.16492807-64.85459534 1.50824641-33.18142087-21.11544964-64.85459532-67.87108814-93.51127698-52.7886241-33.18142087-63.34634892-70.88758095-63.34634892-98.03601618v-33.18142087c0-21.11544964 16.59071043-37.70616007 37.70616008-37.70616008s37.70616007 16.59071043 37.70616005 37.70616008V308.58767986c0 10.55772482 9.04947843 22.62369604 27.14843527 33.18142084 69.37933454 45.24739209 104.0690018 99.5442626 102.56075541 161.38236513zM515.01649281 123.07337228999995m-52.78862412 0a52.7886241 52.7886241 0 1 1 105.57724823 0 52.7886241 52.7886241 0 1 1-105.57724823 0Z"  horiz-adv-x="1024" />

    
    <glyph glyph-name="yaoqingma" unicode="&#58940;" d="M973.098693 551.404344c-0.26147 0.265102-0.526572 7.277581-0.802567 7.539052l7.793258 7.945782-7.793258-17.391386c-13.520177 13.276865-40.549637 26.604571-65.65802 27.392613l-24.193237 0.334101V780.136111c0 51.709322-28.166128 74.823995-79.374299 74.823995H219.273453c-51.219066 0-78.030634-23.111042-78.030634-74.823995l-1.350928-201.429942-23.906346 0.751726c-23.666665-1.35456-44.384531-12.107513-60.780878-27.810238l-9.05703 16.14214 7.70247-13.45481 1.034986-0.305048-16.719554 21.262594 0.417626 0.406731c17.750907 16.999181 40.778424 27.98092 65.73065 31.528923V780.13248C104.310184 844.021945 155.881507 896 219.273453 896h583.797117c63.388315 0 114.959638-51.978055 114.959638-115.86752v-172.508457c26.62636-3.101325 51.073804-14.580583 69.736225-32.908903l1.013196-1.005933-15.673673-19.599355-0.007263-2.705488zM104.30292 597.241486h35.58534v-113.034929l-35.58534 6.743747zM883.846639 647.41104h34.238042v-161.381456l-34.238042-4.049153-1.347297 165.430609zM902.694267-127.99636799999996H121.262154C57.369058-127.99636799999996 5.391003-79.87862800000005 5.391003-20.74283200000002V503.27934c0 26.757095 11.025318 50.997542 32.770905 72.034982a11.047107 11.047107 0 0 0 15.49936-0.141629l442.28738-443.329629c4.190783-4.190783 10.299012-6.60938 16.723185-6.60938 6.445962 0 12.546928 2.418597 16.752237 6.623906l442.792162 442.7849a11.043475 11.043475 0 0 0 15.368625 0.246943c1.318245-1.241982 32.342385-30.80988 30.973299-71.806195v-523.818807c0.018158-59.143059-51.970792-107.2608-115.863889-107.260799zM65.656204 503.264814v-61.463605l-0.388574-449.978955c0-41.294101 41.036262-73.084493 88.158965-73.084494h712.098987c47.126334 0 89.50263 31.790393 89.50263 73.084494l-0.388574 449.978955c0 0.112577-0.007263 0.232418 0 0.352259-0.007263-0.352258 0 59.310109 0 59.310109l-415.029134-400.085398c-7.575367-7.324791-18.335583-11.522837-29.498898-11.522837-11.156053 0-21.901743 4.205309-29.495268 11.522837L65.656204 503.264814zM418.375586 503.341076l78.263052-78.263051a18.720525 18.720525 0 0 1 13.276865-5.509028 18.70963 18.70963 0 0 1 13.269602 5.509028l78.263052 78.263051c0.530203 0.530203 1.027722 1.09309 1.481663 1.666872 27.058512 28.986853 26.441153 74.729575-1.757659 102.93565-24.639915 24.599968-62.607536 28.19518-91.151344 10.727532a73.618328 73.618328 0 0 1-39.267708 11.225052 73.611065 73.611065 0 0 1-52.402943-21.712903 73.611065 73.611065 0 0 1-21.712904-52.399312 73.621959 73.621959 0 0 1 21.088281-51.781953c0.221523-0.217892 0.42852-0.432152 0.650043-0.660938m0 0z"  horiz-adv-x="1024" />

    
    <glyph glyph-name="tongxunlu" unicode="&#58907;" d="M779.5392 175.82933333000005l-180.4736 70.32853334s-34.40426667 13.36106667-47.776 26.5056c-8.592 8.4448-7.97546667 28.37226667-0.3712 53.82933333 7.60533333 25.45706667 100.11413333 128.90026667 100.11413333 222.864 0 145.13813333-95.39946667 262.8-213.07946666 262.8s-213.07733333-117.66186667-213.07733334-262.8c0-90.00106667 82.432-197.2928 92.6144-216.79573333 10.18133333-19.504 7.70133333-49.21706667-0.33173333-58.22613334-12.06933333-13.53386667-56.1696-27.08586667-56.1696-27.08586666l-162.69333333-72.512c-38.0128-13.64906667-67.78666667-49.49653333-67.78666667-89.9456v-19.17866667c0-44.1376 35.84746667-71.14666667 79.90826667-71.14666667h657.00266666c44.0608 0 79.90826667 27.01013333 79.90826667 71.14666667v19.17866667c-0.00213333 40.45013333-29.776 77.39093333-67.7888 91.03786666zM748.31573333 479.5456c-18.77333333 0-34.00853333 9.536-34.00853333 29.6768 0 20.13866667 15.2352 29.67466667 34.00853333 29.67466667h238.9664c18.76906667 0 32.91093333-9.53706667 32.91093334-29.67466667 0-20.13866667-16.3264-29.6768-35.0944-29.6768H748.31573333zM798.98666667 343.56906667c-18.77333333 0-34.00746667 9.536-34.00746667 29.67466666s15.2352 29.67466667 34.00853333 29.67466667h188.75306667c18.76906667 0 31.81866667-9.536 31.81866667-29.67466667 0-20.13866667-14.14293333-29.67466667-32.91093334-29.67466666H798.98666667zM861.7568 215.48479999999995c-18.77333333 0-34.00853333 9.536-34.00853333 29.67466667s15.2352 29.67466667 34.00853333 29.67466666h126.53333333c18.768 0 32.88746667-9.536 32.88746667-29.67466666 0-20.13866667-15.21066667-29.67466667-33.97973333-29.67466667H861.7568z"  horiz-adv-x="1024" />

    
    <glyph glyph-name="icon_tuikuan" unicode="&#58904;" d="M993.450667 461.696a23.466667 23.466667 0 0 1-33.322667-3.754667l-40.533333-51.477333a437.781333 437.781333 0 0 1-7.978667 60.074667A449.792 449.792 0 0 1 379.84 821.9093330000001 458.410667 458.410667 0 0 1 31.424 279.57333300000005 449.621333 449.621333 0 0 1 563.2-75.77599999999995a440.128 440.128 0 0 1 223.701333 123.968c0.234667 0.256 0.490667 0.426667 0.725334 0.682667 0.981333 1.173333 1.28 2.346667 2.368 3.52a20.309333 20.309333 0 0 1 2.986666 10.24 19.648 19.648 0 0 1-19.370666 19.882666 18.965333 18.965333 0 0 1-14.506667-6.784h-0.128a401.6 401.6 0 0 0-203.349333-112.170666A407.232 407.232 0 0 0 74.133333 285.44000000000005 415.061333 415.061333 0 0 0 389.589333 776.533333a407.466667 407.466667 0 0 0 481.536-321.877333 448 448 0 0 0 7.381334-51.541333l-49.28 40.256a23.466667 23.466667 0 0 1-33.322667-3.776 24.426667 24.426667 0 0 1 3.712-33.962667h0.128l90.645333-74.197333a23.146667 23.146667 0 0 1 17.6-5.12 23.594667 23.594667 0 0 1 16.213334 8.896 0.234667 0.234667 0 0 0 0.128 0.128l72.682666 92.48a24.533333 24.533333 0 0 1-3.541333 34.005333zM617.386667 362.26133300000004a21.504 21.504 0 0 1 0 43.029334h-106.090667l-11.733333 23.466666 122.325333 121.6-0.128 0.042667a20.928 20.928 0 0 1 1.642667 29.376 20.224 20.224 0 0 1-28.949334 1.728l-115.029333-114.944-121.024 120.576a20.352 20.352 0 0 1-28.992-1.856 20.906667 20.906667 0 0 1 1.770667-29.248l-0.128-0.192 127.274666-126.122667 10.538667-24.384H341.546667a21.504 21.504 0 0 1 0-43.029333h127.317333v-86.037333H341.546667a21.504 21.504 0 0 1 0-43.008h127.317333v-107.605334a21.226667 21.226667 0 1 1 42.432 0v107.541334h127.317333c11.328 0 4.778667 18.901333 4.778667 30.378666s-14.656 12.629333-26.005333 12.629334h-106.090667v86.058666h106.090667z m0 0"  horiz-adv-x="1024" />

    
    <glyph glyph-name="zhifubao" unicode="&#58938;" d="M185.660952 247.41790500000002c-1.926095-87.844571 97.475048-94.378667 112.810667-94.841905 50.663619-1.536 91.574857 17.554286 123.416381 36.473905 31.865905 18.944 83.846095 67.82781 85.77219 69.510095 1.877333 1.682286 3.803429 3.462095 5.729524 5.38819a870.15619 870.15619 0 0 1-40.96 21.211429c-13.385143 6.460952-81.578667 43.081143-142.067809 49.298286-114.541714 11.897905-144.091429-60.318476-144.700953-87.04z m402.480762-22.991238S512 163.49866699999995 484.327619 147.52914299999998a341.333333 341.333333 0 0 0-67.584-29.842286c-20.382476-6.485333-38.204952-10.532571-53.51619-12.214857-15.335619-1.682286-28.062476-2.730667-38.107429-3.267048a8.777143 8.777143 0 0 0-3.584-0.707047h-11.50781a285.744762 285.744762 0 0 0-74.386285 9.362285c-23.259429 6.217143-43.471238 15.481905-60.732953 27.672381a134.436571 134.436571 0 0 0-40.96 46.031239c-10.044952 18.456381-15.11619 39.887238-15.11619 64.316952a109.665524 109.665524 0 0 0 17.261714 57.490286 152.137143 152.137143 0 0 0 42.764191 43.836952 202.044952 202.044952 0 0 0 58.221714 27.331048 196.803048 196.803048 0 0 0 64.341333 7.899428c21.065143-0.950857 41.447619-3.486476 61.074286-7.509333 19.675429-4.096 38.473143-8.996571 56.441905-14.774857a626.590476 626.590476 0 0 0 51.004952-18.67581c16.091429-6.729143 31.256381-13.190095 45.641143-19.407238a687.567238 687.567238 0 0 1 37.376-14.384762 413.988571 413.988571 0 0 1 35.230476 52.102095 554.422857 554.422857 0 0 1 23.698286 46.689524 511.75619 511.75619 0 0 1 14.384762 35.596191c3.364571 9.606095 5.510095 16.286476 6.460952 20.138666H320.78019v34.499048h147.358477v79.774476h-204.848762v34.499048h204.848762V678.66819c0 4.291048 2.364952 7.777524 7.192381 10.410667 4.803048 2.633143 10.313143 4.412952 16.505904 5.388191a125.342476 125.342476 0 0 0 24.429715 2.169904h55.344762v-82.651428h210.578285v-34.499048h-210.578285v-79.774476h167.350857l0.121904 0.707048v-0.707048h-0.121904a412.233143 412.233143 0 0 0-17.13981-67.584c-6.704762-20.601905-16.65219-44.080762-29.817905-70.41219-13.165714-26.38019-30.549333-53.443048-52.126476-81.237334 0 0 164.961524-78.896762 339.090286-106.691047A510.293333 510.293333 0 0 1 1024 384C1024 666.7702859999999 794.721524 896 512 896 229.229714 896 0 666.7702859999999 0 384c0-282.721524 229.229714-512 512-512 175.396571 0 330.191238 88.234667 422.448762 222.695619-93.769143 20.431238-193.365333 61.805714-346.307048 129.731048z"  horiz-adv-x="1024" />

    
    <glyph glyph-name="qian" unicode="&#59402;" d="M900.57142812 864H123.42857188C73.14285688 864 32 822.85714312 32 772.57142812v-777.14285624c0-50.28571406 41.14285687-91.42857188 91.42857188-91.42857188h777.14285624c50.28571406 0 91.42857188 41.14285687 91.42857188 91.42857188V772.57142812c0 50.28571406-41.14285687 91.42857188-91.42857188 91.42857188z m-192.86857125-251.24571469l-160.34285718-160.27428562h115.74857156a22.8571425 22.8571425 0 0 0 0-45.714285h-122.42285719v-135.84h122.42285719a22.8571425 22.8571425 0 0 0 0-45.71428594h-122.42285719v-86.14857187a22.8571425 22.8571425 0 0 0-45.71428594 0v86.14857187H372.57142813a22.8571425 22.8571425 0 0 0 0 45.71428594h122.4v135.84H372.57142813a22.8571425 22.8571425 0 0 0 0 45.714285h115.68l-160.29714282 160.27428562a22.83428531 22.83428531 0 1 0 32.32000032 32.32000032l156.48-156.45714282c0.36571406 0.02285719 0.68571469 0.20571469 1.05142875 0.20571469s0.6628575-0.1828575 1.02857156-0.20571469l156.52571437 156.45714281a22.8571425 22.8571425 0 1 0 32.34285656-32.32000031z"  horiz-adv-x="1024" />

    
    <glyph glyph-name="zhiboguankanshu" unicode="&#58983;" d="M512 602.4533333300001c-120.14933333 0-218.45333333-98.304-218.45333333-218.45333333s98.304-218.45333333 218.45333333-218.45333333 218.45333333 98.304 218.45333333 218.45333333-98.304 218.45333333-218.45333333 218.45333333z m0-364.08888888c-80.09955555 0-145.63555555 65.536-145.63555555 145.63555555s65.536 145.63555555 145.63555555 145.63555555 145.63555555-65.536 145.63555555-145.63555555-65.536-145.63555555-145.63555555-145.63555555z m487.87911111 178.40355555C934.34311111 507.79022222 741.376 748.08888889 512 748.08888889 282.624 748.08888889 89.65688889 507.79022222 24.12088889 416.768c-14.56355555-21.84533333-14.56355555-47.33155555 0-69.17688889 65.536-87.38133333 258.50311111-327.68 487.87911111-327.68 229.376 0 422.34311111 240.29866667 487.87911111 331.32088889 14.56355555 18.20444445 14.56355555 47.33155555 0 65.536z m-72.81777778-54.61333333C879.72977778 296.61866667000004 712.24888889 92.72888889000001 512 92.72888889000001S144.27022222 296.61866667000004 96.93866667 362.15466667c-10.92266667 14.56355555-10.92266667 29.12711111 0 43.69066666C144.27022222 471.38133333 311.75111111 675.27111111 512 675.27111111s367.72977778-203.88977778 415.06133333-269.42577778c10.92266667-14.56355555 10.92266667-29.12711111 0-43.69066666z"  horiz-adv-x="1024" />

    
    <glyph glyph-name="ziyuan" unicode="&#59043;" d="M803.087395-127.41402200000005a58.480801 58.480801 0 0 0-27.778381 7.894908l-233.923205 128.657763a73.101002 73.101002 0 0 1-60.235225 0l-233.923205-128.657763a45.907429 45.907429 0 0 0-51.463106 0A51.463105 51.463105 0 0 0 180.851669-68.933221l44.737813 272.22813a82.165526 82.165526 0 0 1-18.713856 59.942821L17.982638 457.39399a51.463105 51.463105 0 0 0-15.789817 51.170702 47.954257 47.954257 0 0 0 41.521369 31.579632l261.116778 39.766945a76.317446 76.317446 0 0 1 48.831469 37.135309l116.961602 247.666193A47.954257 47.954257 0 0 0 511.853004 896a47.954257 47.954257 0 0 0 41.521369-31.579633l116.961603-247.666193a76.317446 76.317446 0 0 1 48.831469-37.135309l261.116778-39.766945a47.954257 47.954257 0 0 0 41.521368-31.579632 51.463105 51.463105 0 0 0-16.08222-50.878298l-188.892988-192.986644a82.165526 82.165526 0 0 1-18.713856-59.942821L842.85434-68.933221a51.463105 51.463105 0 0 0-15.789817-51.170701 38.597329 38.597329 0 0 0-23.684724-7.894908zM51.609098 491.312855l188.015776-192.109432A130.996995 130.996995 0 0 0 271.789315 194.23038499999996l-44.445409-269.596494 232.461185 128.072955a116.961603 116.961603 0 0 0 104.095826 0l232.461186-128.072955L751.916694 194.23038499999996a130.996995 130.996995 0 0 0 32.16444 103.511018l188.015776 192.109432-259.947161 39.474541a121.932471 121.932471 0 0 0-84.212354 64.036477l-116.961603 246.788982-116.961602-246.496578a121.932471 121.932471 0 0 0-84.212354-64.036477l-258.192738-38.304925z"  horiz-adv-x="1024" />

    
    <glyph glyph-name="fujing" unicode="&#58901;" d="M511.9642-128C253.945069-128 109.942384-71.16361800000004 109.942384 24.193768999999975c0 54.960452 83.457403 103.104548 198.977457 129.854449L336.199586 106.34804499999996c-98.421883-17.112491-161.81686-47.456732-161.81686-82.125636 0-53.514124 162.833585-87.910947 337.610114-87.910947s337.610114 34.368183 337.610114 87.910947c0 34.668904-63.423617 65.027465-161.81686 82.125636l27.308385 47.714493c115.520054-26.764222 198.963137-74.893998 198.963137-129.854449 0-93.080494-152.193769-152.208089-402.021816-152.208089m267.29854 465.273592c-9.37965-10.181574-231.412429-268.530067-231.412429-268.530067-9.308049-11.31286-19.503944-19.188902-30.530402-19.188902s-19.360743 8.821167-27.809588 19.188902c0 0-250.38653 273.699614-254.625273 279.642446s-10.024053 13.503832-14.706718 21.308273c-32.936175 52.898361-54.860211 113.443643-54.860211 180.347038C165.389719 741.114057 320.547743 896 511.93556 896s346.545841-154.885943 346.545841-345.958718A342.63646 342.63646 0 0 0 803.034066 363.03540899999996c-9.580131-12.587347-18.616099-20.66387-23.771326-25.776137M511.9642 831.788779c-156.833473 0-283.967109-126.904514-283.967109-283.451586 0-51.681155 16.95497-98.006601 42.859988-135.725681C279.406164 399.09336 306.127426 367.589193 306.127426 367.589193l213.727136-237.713263 194.753034 231.097388s10.267495 12.172065 22.55412 29.943279c31.360967 45.337361 58.712312 94.985065 58.712312 157.420596 0 156.547072-127.133635 283.451586-283.967108 283.451586m0-415.282206a133.506069 133.506069 0 1 0 133.74951 133.506069 133.62063 133.62063 0 0 0-133.74951-133.506069m0 202.700677a69.194608 69.194608 0 1 1 69.323488-69.208928 69.266208 69.266208 0 0 1-69.323488 69.208928m0 0z"  horiz-adv-x="1024" />

    
    <glyph glyph-name="wo" unicode="&#59005;" d="M969.386667-66.55999999999995c0-22.755556-18.204444-40.96-40.96-40.96H111.502222c-22.755556 0-40.96 18.204444-40.96 40.96 0 0 6.826667 141.084444 118.328889 195.697778 70.542222 34.133333 43.235556 18.204444 129.706667 52.337778 86.471111 34.133333 106.951111 59.164444 106.951111 59.164444l-4.551111 45.511111s-95.573333 27.306667-111.502222 131.982222c-29.582222-6.826667-38.684444 31.857778-40.96 56.888889-2.275556 25.031111-18.204444 102.4 18.204444 95.573334-6.826667 52.337778-13.653333 97.848889-9.102222 122.88 4.551111 40.96-6.826667 47.786667 31.857778 79.644444 9.102222 9.102222-9.102222 47.786667-2.275556 59.164444 11.377778 22.755556 88.746667 13.653333 100.124444 18.204445 31.857778 13.653333 68.266667 22.755556 106.951112 25.031111 163.84-6.826667 227.555556-95.573333 236.657777-182.044444 2.275556-25.031111-2.275556-70.542222-11.377777-122.88 36.408889 6.826667 20.48-70.542222 18.204444-95.573334-2.275556-25.031111-11.377778-65.991111-40.96-56.888889-15.928889-104.675556-93.297778-131.982222-93.297778-131.982222l-4.551111-43.235555s20.48-22.755556 106.951111-59.164445c86.471111-34.133333 59.164444-20.48 129.706667-54.613333 106.951111-52.337778 113.777778-195.697778 113.777778-195.697778z m0 0"  horiz-adv-x="1024" />

    
    <glyph glyph-name="waimai1" unicode="&#58995;" d="M1046.95172375 356.45793094l0.86068969 0.69517218-52.03862063 26.61517313v133.24137937l37.93655156 97.25793094c5.95862063 9.56689687 10.19586188 19.9944825 12.41379375 31.44827531l1.68827532 4.56827625-1.19172375 0.86068969c0.49655156 4.17103406 1.19172375 8.17655156 1.19172375 12.51310313 0 51.50896594-40.81655156 93.25241344-91.13379282 93.25241343-4.43586188 0-8.67310313-0.69517219-13.108965-1.39034437v1.39034437h-208.28689687v-80.01103406h78.22344844v-159.88965469l-115.79586282-213.08689687h-196.89931031l43.3655175 73.92 15.12827625 25.92 19.53103406 33.23586187v80.011035H84.03862062v-80.011035h78.22344844L32 250.52689687999998v-133.40689688h0.66206906C39.5144825-1.7544824999999946 135.58068969-96 253.42896594-96c108.97655156 0 199.28275875 80.54068969 217.82068968 186.47172375h345.86482688c18.53793094-105.93103406 108.81103406-186.47172375 217.82068969-186.47172375 122.25103406 0 221.36275875 101.42896594 221.36275875 226.49379281 0 120.89379281-92.65655156 219.54206906-209.31310313 225.96413813zM253.39586188 40.55172374999995c-48.66206906 0-87.92275875 40.18758656-87.92275875 89.94206906 0 49.7544825 39.29379281 89.94206906 87.92275875 89.94206907s87.88965562-40.18758656 87.88965562-89.94206907c0-49.58896594-39.26068969-89.94206906-87.88965562-89.94206906z m781.50620718 0c-48.66206906 0-87.92275875 40.18758656-87.92275875 89.94206906 0 49.7544825 39.45931031 89.94206906 87.92275875 89.94206907 48.62896594 0 87.88965562-40.18758656 87.88965469-89.94206907 0-49.58896594-39.42620719-89.94206906-87.88965469-89.94206906zM552.98206906 863.33793094H110.05793094a26.31724125 26.31724125 0 0 1-26.01931031-26.58206906V596.8551721900001c0-14.76413813 11.58620719-26.61517219 26.01931031-26.61517219h442.75862062a26.21793094 26.21793094 0 0 1 26.01931032 26.61517219V836.75586187a26.15172375 26.15172375 0 0 1-25.82068969 26.61517219zM188.28137937 730.16275875h286.51034438V783.36H188.24827625v-53.23034438z"  horiz-adv-x="1306" />

    
    <glyph glyph-name="mayijubao" unicode="&#58909;" d="M341.48773433 367.89960135c32.96757419 0 59.95869753-25.3945253 59.95869753-57.04598642 0-51.43632099 44.76944839-93.5519653 100.1109595-93.5519653 55.31993543 0 100.08938382 42.11564544 100.08938382 93.5519653 0 31.65146112 26.96954766 57.04598642 59.95869753 57.04598642 32.96757419 0 59.93712185-25.3945253 59.93712185-57.04598642 0-114.67451506-98.81642098-207.66551495-220.00677888-207.66551381-121.16878222 0-220.00677888 92.99099875-220.00677888 207.66551381 0 31.65146112 26.96954766 57.04598642 59.98027321 57.04598642zM714.44420949 728.79529642l99.67944704-75.29897642c105.39699086-79.78670877 157.93366926-196.92084679 157.93366926-334.37923556 0-241.21563136-208.26963171-437.16557483-463.94094022-437.16557482S44.19701987 77.90145308000001 44.19701987 319.11708444c0 137.45838877 52.51510272 254.59252679 157.93366927 334.35765988l99.67944704 75.3205521-48.54518557 38.18887851c-15.42658162 11.86660125-31.99667086 24.42362197-50.55171925 38.25360669-26.64591246 19.84958691-31.45728 46.53865074-10.83096974 75.29897528 22.76229803 24.12156359 55.27678407 24.76883171 97.60818517-12.01762986l45.8698058-37.54161038 6.60214556-5.67439247a7122.16120889 7122.16120889 0 0 0 29.27814087-25.35137393c2.09283641-1.83392939 3.71101013-3.27949653 4.83294208-4.31512804 1.87708075-1.74762667 1.89865643-1.76920235 2.30859321-2.22229049 9.57958371-8.99704149 18.38244295-19.67698147 23.15066027-31.1767973 5.17815296-12.23338667 7.89668295-24.16471495 7.59462457-33.98162887 0.90617629-21.61878926-8.97546581-41.27419506-25.99864434-59.65663914-7.24941483-7.83195705-26.6027611-24.68253013-23.30168889-21.46775951l-103.08839765-81.77166791c-77.84490098-63.3029211-114.19985123-145.26877013-114.19985124-246.24275456 0-178.21476864 176.01405383-344.62766307 365.57760854-344.62766308s365.57760739 166.41289443 365.57760739 344.62766308c0 100.97398557-36.35495026 182.93983346-114.09197283 246.13487616l-103.92984804 82.52681558c4.05621987-3.86203875-15.31870322 12.98853433-22.54654123 20.82049024-17.04475421 18.38244295-26.90482062 38.03784989-25.9986432 58.90149148-0.32363406 10.57206272 2.41647161 22.52496555 7.55147321 34.69362517 4.96239616 11.93132829 14.02416469 22.74072235 25.35137394 33.22648235l41.3389221 35.96658916 67.40229347 51.19898851c36.89434112 20.43212914 61.92208099 21.94242333 81.38330567-1.87708075 19.95746531-24.38047061 10.9819995-54.90999865-16.61324174-75.47158072-18.59819975-13.85155925-35.16829013-26.40858112-50.48699221-38.18887965l-48.60991261-38.25360555z"  horiz-adv-x="1024" />

    
    <glyph glyph-name="tianmao" unicode="&#58910;" d="M261.35581469 540.20823495a64.01491741 64.01491741 0 1 0 0 128.00825914 64.01491741 64.01491741 0 0 0 0-128.00825914zM741.41375715 540.20823495a64.01491741 64.01491741 0 1 0 0 128.00825914 64.01491741 64.01491741 0 0 0 0-128.00825914zM233.60954482 600.4689908600001c43.15127581-319.3194405 515.48513963-312.84674901 534.08333937 2.09283642a28.00517803 28.00517803 0 0 1-55.92405333 3.30107334c-14.52040419-246.07015026-388.42620814-251.20515186-422.66674517 2.09283641a28.00517803 28.00517803 0 0 1-55.49254087-7.48674617zM114.92196125 773.7645147000001v-787.16557198c0-4.8545189 4.03464419-8.88916309 8.88916195-8.88916309h787.16557198a8.95389013 8.95389013 0 0 1 8.88916309 8.88916309V773.7645147000001a8.95389013 8.95389013 0 0 1-8.88916309 8.88916196H123.8111232a8.95389013 8.95389013 0 0 1-8.88916195-8.88916196zM37.33596729 773.7645147000001C37.33596729 821.53297693 76.17211506 860.23967062 123.8111232 860.23967062h787.16557198C958.74515741 860.23967062 997.45185223 821.40352285 997.45185223 773.7645147000001v-787.16557198c0-47.76846222-38.83614777-86.47515705-86.47515705-86.47515705H123.8111232A86.53988295 86.53988295 0 0 0 37.33596729-13.401057280000032V773.7645147000001zM188.36543261 148.24362097999995c28.76032569-28.76032569 79.11786382-57.54222592 151.02946417-86.30255047h366.78584434c64.72691371 0 129.45382741 64.72691371 151.02946418 86.30255047s43.15127581 64.72691371 64.72691371 64.72691371c14.39095011 0 28.76032569-7.18468779 43.1512758-21.57563791v-215.75637788h-64.72691371c-14.39095011 43.15127581-43.15127581 64.72691371-86.30255161 64.72691371 14.39095011-14.39095011 21.5756379-35.96658802 21.5756379-64.72691371h-64.72691256c0 28.76032569 7.18468779 50.33596359 21.5756379 64.72691371-21.5756379 0-86.30255161-21.5756379-86.30255161-64.72691371H317.81925888c-14.39095011 43.15127581-43.15127581 64.72691371-86.30255161 64.72691371 14.39095011-14.39095011 21.5756379-35.96658802 21.5756379-64.72691371-43.15127581-28.76032569-64.72691371-28.76032569-64.72691256 0 0 43.15127581 21.5756379 64.72691371 21.5756379 64.72691371-43.15127581 0-71.91160149-21.5756379-86.30255161-64.72691371H80.48724309l21.5756379 258.90765369 86.30255162-86.30255161z"  horiz-adv-x="1024" />

    
    <glyph glyph-name="haoyou" unicode="&#58928;" d="M871.537778 191.76727300000005a355.555556 355.555556 0 0 1-96.090505 101.003636 739.141818 739.141818 0 0 1-112.64 58.647273c109.330101 65.163636 162.340202 195.439192 125.931313 315.991919C755.587879 787.962828 642.999596 872.727273 513.810101 872.727273S271.928889 788.014545 238.829899 664.203636c-36.408889-120.552727 16.549495-247.621818 125.879596-312.785454a430.44202 430.44202 0 0 1-115.949899-58.647273c-39.770505-26.065455-72.869495-58.69899-102.658586-97.797172-56.32-78.144646-89.470707-169.373737-86.109091-267.119192 0-16.239192 9.87798-29.271919 26.479192-32.581818h844.696566c9.929697 0 16.549495 3.258182 23.169293 9.774546s9.929697 16.239192 9.929697 22.755555a427.856162 427.856162 0 0 1-92.728889 263.964445z"  horiz-adv-x="1024" />

    
    <glyph glyph-name="tianmao1" unicode="&#58911;" d="M884.454902 896H139.545098C63.247059 896 1.003922 834.7607840000001 1.003922 757.458824V12.549020000000041c0-76.298039 61.239216-138.541176 138.541176-138.541177h744.909804c76.298039 0 138.541176 61.239216 138.541176 138.541177V757.458824C1022.996078 834.7607840000001 960.752941 896 884.454902 896zM927.623529-119.96862699999997c-13.05098-4.015686-28.109804-6.023529-40.156862-6.02353 12.047059 0 25.098039 2.007843 40.156862 6.02353zM1.003922 757.458824v-678.650981 678.650981z m95.372549-877.427451c15.058824-4.015686 28.109804-6.023529 42.164705-6.02353-14.054902 0-27.105882 2.007843-42.164705 6.02353zM935.654902-74.79215699999997c0 59.231373-47.184314 110.431373-106.415686 112.439216-2.007843 2.007843-4.015686 2.007843-6.02353 2.007843s-4.015686 0-6.023529-2.007843h13.05098c17.066667-8.031373 30.117647-55.215686 30.117647-112.439216 0-19.07451-2.007843-36.141176-4.015686-51.2h30.117647c15.058824 0 28.109804 2.007843 40.156863 6.02353 7.027451 15.058824 9.035294 30.117647 9.035294 45.17647zM207.811765 37.64705900000001c-2.007843 2.007843-4.015686 2.007843-6.02353 2.007843-2.007843 0-4.015686 0-6.023529-2.007843h12.047059zM194.760784 37.64705900000001c-59.231373-2.007843-106.415686-53.207843-106.415686-112.439216 0-15.058824 4.015686-30.117647 11.043137-45.17647 13.05098-4.015686 25.098039-6.023529 40.156863-6.02353h30.117647c-2.007843 15.058824-4.015686 32.12549-4.015686 51.2-1.003922 57.223529 12.047059 104.407843 29.113725 112.439216z m621.427451 0c-59.231373-2.007843-106.415686-53.207843-106.415686-112.439216 0-19.07451 4.015686-36.141176 13.05098-51.2h68.266667c-2.007843 15.058824-4.015686 32.12549-4.015686 51.2 0 57.223529 12.047059 104.407843 29.113725 112.439216z m-283.105882-89.34902h-42.164706c-13.05098 0-17.066667-6.023529-11.043137-15.058823l13.05098-17.066667c4.015686-6.023529 11.043137-15.058824 13.050981-19.07451 2.007843-2.007843 2.007843-2.007843 6.023529-2.007843 4.015686 0 6.023529 2.007843 6.023529 2.007843 4.015686 4.015686 8.031373 13.05098 13.050981 19.07451l11.043137 17.066667c8.031373 9.035294 4.015686 15.058824-9.035294 15.058823z m-325.270588 89.34902c17.066667-8.031373 32.12549-55.215686 32.12549-112.439216 0-19.07451-2.007843-36.141176-4.015686-51.2h68.266666c8.031373 15.058824 13.05098 32.12549 13.050981 51.2-3.011765 59.231373-50.196078 110.431373-109.427451 112.439216zM927.623529-119.96862699999997c19.07451 6.023529 38.14902 17.066667 53.207844 30.117647-17.066667-13.05098-34.133333-23.090196-53.207844-30.117647zM48.188235-89.85098000000005C20.078431-63.74901999999997 1.003922-27.607843000000003 1.003922 12.549020000000041v68.266666V12.549020000000041c0-40.156863 17.066667-76.298039 47.184313-102.4zM96.376471-119.96862699999997c-19.07451 6.023529-36.141176 15.058824-51.2 30.117647 15.058824-13.05098 35.137255-23.090196 51.2-30.117647zM977.819608 212.32941200000005c-40.156863 23.090196-81.317647-19.07451-87.341177-28.109804-53.207843-61.239216-112.439216-135.529412-218.854902-135.529412H352.376471c-106.415686 0-163.639216 76.298039-218.854902 136.533333-8.031373 8.031373-47.184314 51.2-87.341177 28.109804C10.039216 191.24705900000004 3.011765 124.98823500000003 1.003922 80.81568600000003v-70.27451c0-40.156863 17.066667-76.298039 47.184313-102.4 15.058824-13.05098 32.12549-23.090196 51.2-30.117647-6.023529 13.05098-11.043137 28.109804-11.043137 45.176471 0 59.231373 47.184314 110.431373 106.415686 112.439216 2.007843 2.007843 4.015686 2.007843 6.02353 2.007843 2.007843 0 4.015686 0 6.023529-2.007843 59.231373-2.007843 106.415686-53.207843 106.415686-112.439216 0-19.07451-4.015686-36.141176-13.05098-51.2h421.647059c-8.031373 15.058824-13.05098 32.12549-13.050981 51.2 0 59.231373 47.184314 110.431373 106.415687 112.439216 2.007843 2.007843 4.015686 2.007843 6.023529 2.007843s4.015686 0 6.02353-2.007843C886.462745 33.63137300000005 933.647059-17.568626999999992 933.647059-76.79999999999995c0-15.058824-4.015686-30.117647-11.043137-45.176471 19.07451 6.023529 38.14902 17.066667 53.207843 30.117647 28.109804 25.098039 45.176471 61.239216 45.17647 100.392157v70.27451c0 46.180392-7.027451 112.439216-43.168627 133.521569zM544.12549-66.76078399999994l-11.043137-15.058824c-6.023529-6.023529-11.043137-15.058824-13.05098-19.07451-2.007843-2.007843-4.015686-4.015686-8.031373-4.015686s-6.023529 2.007843-6.023529 2.007843c-4.015686 4.015686-8.031373 13.05098-13.050981 19.07451l-13.05098 17.066667c-6.023529 8.031373 0 15.058824 11.043137 15.058823h42.164706c13.05098 0 17.066667-6.023529 11.043137-15.058823zM829.239216 37.64705900000001h-13.050981c-17.066667-8.031373-30.117647-55.215686-30.117647-112.439216 0-19.07451 2.007843-36.141176 4.015687-51.2h66.258823c2.007843 15.058824 4.015686 32.12549 4.015686 51.2-1.003922 57.223529-14.054902 104.407843-31.121568 112.439216z m-621.427451 0h-13.050981c-17.066667-8.031373-32.12549-55.215686-32.12549-112.439216 0-19.07451 2.007843-36.141176 4.015686-51.2h66.258824c2.007843 15.058824 4.015686 32.12549 4.015686 51.2 0 57.223529-12.047059 104.407843-29.113725 112.439216zM341.333333 542.619608h146.572549v38.149019h-150.588235v81.317648h136.533333v40.156862h-311.215686v-38.149019h136.533333v-81.317647H147.576471V544.6274510000001h146.572549c-15.058824-57.223529-61.239216-106.415686-146.572549-155.607843l19.074509-34.133333c53.207843 30.117647 119.466667 74.290196 153.6 142.556862 8.031373-17.066667 19.07451-34.133333 34.133334-51.2 28.109804-32.12549 66.258824-61.239216 119.466666-91.356862l19.07451 34.133333c-89.34902 47.184314-136.533333 96.376471-151.592157 153.6z m339.325491 66.258823h38.149019v32.125491h83.32549v-32.125491h38.14902v32.125491h38.14902v38.149019h-38.14902v23.090196h-38.14902v-25.098039h-83.32549v25.098039h-38.149019v-25.098039h-36.141177v-38.14902h36.141177v-30.117647z m-77.301961 74.290196c-21.082353 21.082353-55.215686 21.082353-74.290196 19.07451h-4.015687v-38.149019h6.02353c13.05098 0 36.141176 0 47.184314-8.031373 2.007843-2.007843 6.023529-6.023529 6.023529-19.07451v-13.05098l-59.231373-36.141177 19.07451-34.133333 40.156863 23.090196V534.5882349999999l-59.231373-36.141176 19.07451-34.133334 40.156863 23.090197v-32.125491c0-8.031373-4.015686-23.090196-11.043137-30.117647-19.07451-23.090196-49.192157-40.156863-49.192157-40.156862l19.07451-34.133334c2.007843 0 38.14902 21.082353 59.231372 49.192157 11.043137 15.058824 19.07451 36.141176 19.07451 55.215686V633.976471c-1.003922 21.082353-7.027451 36.141176-18.070588 49.192156z m40.156862-100.392156v-174.682353c0-32.12549 25.098039-57.223529 57.22353-57.22353h119.466667c32.12549 0 57.223529 25.098039 57.223529 57.22353V582.776471H643.513725z m98.384314-191.74902h-40.156863c-11.043137 0-19.07451 8.031373-19.074509 19.07451v38.149019h59.231372v-57.223529z m0 96.376471H682.666667V544.6274510000001h59.231372v-57.223529z m98.384314-79.309804c0-11.043137-8.031373-19.07451-19.07451-19.07451h-40.156863v59.231372h59.231373v-40.156862z m0 79.309804h-59.231373V544.6274510000001h59.231373v-57.223529z"  horiz-adv-x="1024" />

    
    <glyph glyph-name="zhangdan" unicode="&#58885;" d="M152.64426667 826.24663703c-16.384 0-29.61256297-13.22856297-29.61256297-29.61256295v-828.54494816c0-16.384 13.22856297-29.61256297 29.61256297-29.61256295H862.73896297c16.384 0 29.61256297 13.22856297 29.61256295 29.61256295V796.63407408c0 16.384-13.22856297 29.61256297-29.61256295 29.61256295H152.64426667z m0 59.22512594H862.73896297c49.03063703 0 88.71632592-39.68568889 88.71632592-88.71632594v-828.54494814c0-49.03063703-39.68568889-88.71632592-88.71632592-88.71632592H152.64426667c-49.03063703 0-88.71632592 39.68568889-88.71632592 88.71632592V796.63407408c0 49.03063703 39.68568889 88.83768889 88.71632592 88.83768889zM300.58571852 589.58885925h414.21179259c16.384 0 29.61256297-13.22856297 29.61256297-29.61256295 0-16.384-13.22856297-29.61256297-29.61256297-29.61256297H300.58571852c-16.384 0-29.61256297 13.22856297-29.61256297 29.61256297 0 16.26263703 13.34992592 29.61256297 29.61256297 29.61256295z m0-177.5540148h414.21179259c16.384 0 29.61256297-13.22856297 29.61256297-29.61256297 0-16.384-13.22856297-29.61256297-29.61256297-29.61256296H300.58571852c-16.384 0-29.61256297 13.22856297-29.61256297 29.61256296 0 16.384 13.34992592 29.61256297 29.61256297 29.61256297z m0-177.55401482h236.65777778c16.384 0 29.61256297-13.22856297 29.61256295-29.61256296 0-16.384-13.22856297-29.61256297-29.61256295-29.61256297h-236.65777778c-16.384 0-29.61256297 13.22856297-29.61256297 29.61256297 0 16.384 13.34992592 29.61256297 29.61256297 29.61256296z"  horiz-adv-x="1024" />

    
    <glyph glyph-name="fenlei001" unicode="&#58889;" d="M98.38311523 599.14854491c45.90199487 0 82.82316397 36.9211691 82.82316397 82.82316398 0 45.90199487-36.9211691 82.82316397-82.82316397 82.82316395-45.90199487 0-82.82316397-36.9211691-82.82316397-82.82316395 0-45.90199487 36.9211691-82.82316397 82.82316397-82.82316398z m249.46736066 0h576.76853873c45.90199487 0 82.82316397 36.9211691 82.82316396 82.82316398 0 45.90199487-36.9211691 82.82316397-82.82316396 82.82316395H347.85047589c-45.90199487 0-82.82316397-36.9211691-82.82316396-82.82316395 0-45.90199487 36.9211691-82.82316397 82.82316396-82.82316398zM100.37885413 434.50008711c-45.90199487 0-82.82316397-36.9211691-82.82316396-82.82316396 0-45.90199487 36.9211691-82.82316397 82.82316396-82.82316397 45.90199487 0 82.82316397 36.9211691 82.82316398 82.82316397 0 44.90412473-36.9211691 82.82316397-82.82316398 82.82316396z m825.23803064 0H349.84621482c-45.90199487 0-82.82316397-36.9211691-82.82316397-82.82316396 0-45.90199487 36.9211691-82.82316397 82.82316397-82.82316397h576.76853871c45.90199487 0 82.82316397 36.9211691 82.82316397 82.82316397-0.99786877 44.90412473-37.91903925 82.82316397-83.82103273 82.82316396zM100.37885413 103.20743123c-45.90199487 0-82.82316397-36.9211691-82.82316396-82.82316396 0-45.90199487 36.9211691-82.82316397 82.82316396-82.82316395 45.90199487 0 82.82316397 36.9211691 82.82316398 82.82316395 0 45.90199487-36.9211691 82.82316397-82.82316398 82.82316396z m825.23803064 0H349.84621482c-45.90199487 0-82.82316397-36.9211691-82.82316397-82.82316396 0-45.90199487 36.9211691-82.82316397 82.82316397-82.82316395h576.76853871c45.90199487 0 82.82316397 36.9211691 82.82316397 82.82316395-0.99786877 45.90199487-37.91903925 82.82316397-83.82103273 82.82316396z"  horiz-adv-x="1024" />

    
    </font>
</defs>
</svg>
